<svg width="73" height="18" viewBox="0 0 73 18" fill="none" xmlns="http://www.w3.org/2000/svg">
    <path d="M0 0H74V18H16C7.16344 18 0 10.8366 0 2V0Z" fill="white" />
    <path
        d="M12.8174 12L10.0439 4.8418H11.0693L12.9297 10.042C13.0794 10.4587 13.2048 10.8493 13.3057 11.2139C13.4163 10.8232 13.5449 10.4326 13.6914 10.042L15.625 4.8418H16.5918L13.7891 12H12.8174ZM17.002 9.40723C17.002 8.44694 17.2689 7.73568 17.8027 7.27344C18.2487 6.88932 18.7923 6.69727 19.4336 6.69727C20.1465 6.69727 20.7292 6.93164 21.1816 7.40039C21.6341 7.86589 21.8604 8.51042 21.8604 9.33398C21.8604 10.0013 21.7594 10.527 21.5576 10.9111C21.359 11.292 21.0677 11.5882 20.6836 11.7998C20.3027 12.0114 19.8861 12.1172 19.4336 12.1172C18.7077 12.1172 18.1201 11.8844 17.6709 11.4189C17.2249 10.9535 17.002 10.2829 17.002 9.40723ZM17.9053 9.40723C17.9053 10.0713 18.0501 10.5693 18.3398 10.9014C18.6296 11.2301 18.9941 11.3945 19.4336 11.3945C19.8698 11.3945 20.2327 11.2285 20.5225 10.8965C20.8122 10.5645 20.957 10.0583 20.957 9.37793C20.957 8.73665 20.8105 8.25163 20.5176 7.92285C20.2279 7.59082 19.8665 7.4248 19.4336 7.4248C18.9941 7.4248 18.6296 7.58919 18.3398 7.91797C18.0501 8.24674 17.9053 8.74316 17.9053 9.40723ZM19.4434 5.33984L18.8916 6.16992H17.8857L18.9404 4.80273H19.8779L20.9766 6.16992H19.9805L19.4434 5.33984ZM25.6787 12V4.8418H26.5576V7.41016C26.9678 6.9349 27.4854 6.69727 28.1104 6.69727C28.4945 6.69727 28.8281 6.77376 29.1113 6.92676C29.3945 7.0765 29.5964 7.28483 29.7168 7.55176C29.8405 7.81868 29.9023 8.20605 29.9023 8.71387V12H29.0234V8.71387C29.0234 8.27441 28.9274 7.9554 28.7354 7.75684C28.5465 7.55501 28.278 7.4541 27.9297 7.4541C27.6693 7.4541 27.4235 7.52246 27.1924 7.65918C26.9645 7.79264 26.8018 7.97493 26.7041 8.20605C26.6064 8.43717 26.5576 8.75618 26.5576 9.16309V12H25.6787ZM31.25 5.85254V4.8418H32.1289V5.85254H31.25ZM31.25 12V6.81445H32.1289V12H31.25ZM37.0215 10.3301L37.9297 10.4424C37.7865 10.973 37.5212 11.3848 37.1338 11.6777C36.7464 11.9707 36.2516 12.1172 35.6494 12.1172C34.891 12.1172 34.2887 11.8844 33.8428 11.4189C33.4001 10.9502 33.1787 10.2943 33.1787 9.45117C33.1787 8.57878 33.4033 7.90169 33.8525 7.41992C34.3018 6.93815 34.8844 6.69727 35.6006 6.69727C36.2939 6.69727 36.8604 6.93327 37.2998 7.40527C37.7393 7.87728 37.959 8.54134 37.959 9.39746C37.959 9.44954 37.9574 9.52767 37.9541 9.63184H34.0869C34.1195 10.2015 34.2806 10.6377 34.5703 10.9404C34.86 11.2432 35.2214 11.3945 35.6543 11.3945C35.9766 11.3945 36.2516 11.3099 36.4795 11.1406C36.7074 10.9714 36.888 10.7012 37.0215 10.3301ZM34.1357 8.90918H37.0312C36.9922 8.47298 36.8815 8.14583 36.6992 7.92773C36.4193 7.58919 36.0563 7.41992 35.6104 7.41992C35.2067 7.41992 34.8665 7.55501 34.5898 7.8252C34.3164 8.09538 34.165 8.45671 34.1357 8.90918ZM35.5811 5.33984L35.0293 6.16992H34.0234L35.0781 4.80273H36.0156L37.1143 6.16992H36.1182L35.5811 5.33984ZM35.1367 13.5869V12.5859H36.1377V13.5869H35.1367ZM42.4365 12V11.2383C42.0329 11.8242 41.4844 12.1172 40.791 12.1172C40.485 12.1172 40.1986 12.0586 39.9316 11.9414C39.668 11.8242 39.471 11.6777 39.3408 11.502C39.2139 11.3229 39.1243 11.1048 39.0723 10.8477C39.0365 10.6751 39.0186 10.4017 39.0186 10.0273V6.81445H39.8975V9.69043C39.8975 10.1494 39.9154 10.4587 39.9512 10.6182C40.0065 10.8493 40.1237 11.0316 40.3027 11.165C40.4818 11.2952 40.7031 11.3604 40.9668 11.3604C41.2305 11.3604 41.4779 11.2936 41.709 11.1602C41.9401 11.0234 42.1029 10.8395 42.1973 10.6084C42.2949 10.374 42.3438 10.0355 42.3438 9.59277V6.81445H43.2227V12H42.4365ZM47.3877 12V4.8418H48.2666V7.41016C48.6768 6.9349 49.1943 6.69727 49.8193 6.69727C50.2035 6.69727 50.5371 6.77376 50.8203 6.92676C51.1035 7.0765 51.3053 7.28483 51.4258 7.55176C51.5495 7.81868 51.6113 8.20605 51.6113 8.71387V12H50.7324V8.71387C50.7324 8.27441 50.6364 7.9554 50.4443 7.75684C50.2555 7.55501 49.987 7.4541 49.6387 7.4541C49.3783 7.4541 49.1325 7.52246 48.9014 7.65918C48.6735 7.79264 48.5107 7.97493 48.4131 8.20605C48.3154 8.43717 48.2666 8.75618 48.2666 9.16309V12H47.3877ZM52.627 9.40723C52.627 8.44694 52.8939 7.73568 53.4277 7.27344C53.8737 6.88932 54.4173 6.69727 55.0586 6.69727C55.7715 6.69727 56.3542 6.93164 56.8066 7.40039C57.2591 7.86589 57.4854 8.51042 57.4854 9.33398C57.4854 10.0013 57.3844 10.527 57.1826 10.9111C56.984 11.292 56.6927 11.5882 56.3086 11.7998C55.9277 12.0114 55.5111 12.1172 55.0586 12.1172C54.3327 12.1172 53.7451 11.8844 53.2959 11.4189C52.8499 10.9535 52.627 10.2829 52.627 9.40723ZM53.5303 9.40723C53.5303 10.0713 53.6751 10.5693 53.9648 10.9014C54.2546 11.2301 54.6191 11.3945 55.0586 11.3945C55.4948 11.3945 55.8577 11.2285 56.1475 10.8965C56.4372 10.5645 56.582 10.0583 56.582 9.37793C56.582 8.73665 56.4355 8.25163 56.1426 7.92285C55.8529 7.59082 55.4915 7.4248 55.0586 7.4248C54.6191 7.4248 54.2546 7.58919 53.9648 7.91797C53.6751 8.24674 53.5303 8.74316 53.5303 9.40723ZM61.9043 11.3604C61.5788 11.637 61.2646 11.8324 60.9619 11.9463C60.6624 12.0602 60.3402 12.1172 59.9951 12.1172C59.4255 12.1172 58.9876 11.9788 58.6816 11.7021C58.3757 11.4222 58.2227 11.0658 58.2227 10.6328C58.2227 10.3789 58.2796 10.1478 58.3936 9.93945C58.5107 9.72786 58.6621 9.55859 58.8477 9.43164C59.0365 9.30469 59.248 9.20866 59.4824 9.14355C59.6549 9.09798 59.9154 9.05404 60.2637 9.01172C60.9733 8.92708 61.4958 8.82617 61.8311 8.70898C61.8343 8.58854 61.8359 8.51204 61.8359 8.47949C61.8359 8.12142 61.7529 7.86914 61.5869 7.72266C61.3623 7.52409 61.0286 7.4248 60.5859 7.4248C60.1725 7.4248 59.8665 7.49805 59.668 7.64453C59.4727 7.78776 59.3278 8.04329 59.2334 8.41113L58.374 8.29395C58.4521 7.92611 58.5807 7.62988 58.7598 7.40527C58.9388 7.17741 59.1976 7.00326 59.5361 6.88281C59.8747 6.75911 60.2669 6.69727 60.7129 6.69727C61.1556 6.69727 61.5153 6.74935 61.792 6.85352C62.0687 6.95768 62.2721 7.08952 62.4023 7.24902C62.5326 7.40527 62.6237 7.60384 62.6758 7.84473C62.7051 7.99447 62.7197 8.26465 62.7197 8.65527V9.82715C62.7197 10.6442 62.7376 11.1618 62.7734 11.3799C62.8125 11.5947 62.8874 11.8014 62.998 12H62.0801C61.9889 11.8177 61.9303 11.6045 61.9043 11.3604ZM61.8311 9.39746C61.512 9.52767 61.0335 9.63835 60.3955 9.72949C60.0342 9.78158 59.7786 9.84017 59.6289 9.90527C59.4792 9.97038 59.3636 10.0664 59.2822 10.1934C59.2008 10.3171 59.1602 10.4554 59.1602 10.6084C59.1602 10.8428 59.248 11.0381 59.4238 11.1943C59.6029 11.3506 59.8633 11.4287 60.2051 11.4287C60.5436 11.4287 60.8447 11.3555 61.1084 11.209C61.3721 11.0592 61.5658 10.8558 61.6895 10.5986C61.7839 10.4001 61.8311 10.1071 61.8311 9.71973V9.39746ZM60.1221 6.16992L60.7715 4.80273H61.9238L60.8496 6.16992H60.1221Z"
        fill="#515154" />
</svg>
