<svg width="388" height="64" viewBox="0 0 388 64" fill="none" xmlns="http://www.w3.org/2000/svg">
    <g clip-path="url(#clip0_785_1450)">
        <path
            d="M388 0H0V64H3.1123C3.1123 62.1397 4.9702 60.6316 7.26203 60.6316C9.55387 60.6316 11.4118 62.1397 11.4118 64H15.5615C15.5615 62.1397 17.4194 60.6316 19.7112 60.6316C22.0031 60.6316 23.861 62.1397 23.861 64H28.0107C28.0107 62.1397 29.8686 60.6316 32.1604 60.6316C34.4523 60.6316 36.3102 62.1397 36.3102 64H40.4599C40.4599 62.1397 42.3178 60.6316 44.6096 60.6316C46.9015 60.6316 48.7594 62.1397 48.7594 64H52.9091C52.9091 62.1397 54.767 60.6316 57.0588 60.6316C59.3507 60.6316 61.2086 62.1397 61.2086 64H65.3583C65.3583 62.1397 67.2162 60.6316 69.508 60.6316C71.7999 60.6316 73.6578 62.1397 73.6578 64H77.8075C77.8075 62.1397 79.6654 60.6316 81.9572 60.6316C84.2491 60.6316 86.1069 62.1397 86.1069 64H90.2567C90.2567 62.1397 92.1146 60.6316 94.4064 60.6316C96.6982 60.6316 98.5562 62.1397 98.5562 64H102.706C102.706 62.1397 104.564 60.6316 106.856 60.6316C109.147 60.6316 111.005 62.1397 111.005 64H115.155C115.155 62.1397 117.013 60.6316 119.305 60.6316C121.597 60.6316 123.455 62.1397 123.455 64H127.604C127.604 62.1397 129.462 60.6316 131.754 60.6316C134.046 60.6316 135.904 62.1397 135.904 64H140.053C140.053 62.1397 141.911 60.6316 144.203 60.6316C146.495 60.6316 148.353 62.1397 148.353 64H152.503C152.503 62.1397 154.361 60.6316 156.652 60.6316C158.944 60.6316 160.802 62.1397 160.802 64H164.952C164.952 62.1397 166.81 60.6316 169.102 60.6316C171.393 60.6316 173.251 62.1397 173.251 64H177.401C177.401 62.1397 179.259 60.6316 181.551 60.6316C183.843 60.6316 185.701 62.1397 185.701 64H189.85C189.85 62.1397 191.708 60.6316 194 60.6316C196.292 60.6316 198.15 62.1397 198.15 64H202.299C202.299 62.1397 204.157 60.6316 206.449 60.6316C208.741 60.6316 210.599 62.1397 210.599 64H214.749C214.749 62.1397 216.607 60.6316 218.898 60.6316C221.19 60.6316 223.048 62.1397 223.048 64H227.198C227.198 62.1397 229.056 60.6316 231.348 60.6316C233.639 60.6316 235.497 62.1397 235.497 64H239.647C239.647 62.1397 241.505 60.6316 243.797 60.6316C246.089 60.6316 247.947 62.1397 247.947 64H252.096C252.096 62.1397 253.954 60.6316 256.246 60.6316C258.538 60.6316 260.396 62.1397 260.396 64H264.545C264.545 62.1397 266.403 60.6316 268.695 60.6316C270.987 60.6316 272.845 62.1397 272.845 64H276.995C276.995 62.1397 278.853 60.6316 281.144 60.6316C283.436 60.6316 285.294 62.1397 285.294 64H289.444C289.444 62.1397 291.302 60.6316 293.594 60.6316C295.885 60.6316 297.743 62.1397 297.743 64H301.893C301.893 62.1397 303.751 60.6316 306.043 60.6316C308.335 60.6316 310.193 62.1397 310.193 64H314.342C314.342 62.1397 316.2 60.6316 318.492 60.6316C320.784 60.6316 322.642 62.1397 322.642 64H326.791C326.791 62.1397 328.649 60.6316 330.941 60.6316C333.233 60.6316 335.091 62.1397 335.091 64H339.241C339.241 62.1397 341.099 60.6316 343.39 60.6316C345.682 60.6316 347.54 62.1397 347.54 64H351.69C351.69 62.1397 353.548 60.6316 355.84 60.6316C358.131 60.6316 359.989 62.1397 359.989 64H364.139C364.139 62.1397 365.997 60.6316 368.289 60.6316C370.581 60.6316 372.439 62.1397 372.439 64H376.588C376.588 62.1397 378.446 60.6316 380.738 60.6316C383.03 60.6316 384.888 62.1397 384.888 64H388V0Z"
            fill="#C0C0C0" />
        <circle cx="355.5" cy="-26.5" r="76.5" fill="white" fill-opacity="0.2" />
        <circle cx="150.5" cy="110.5" r="76.5" fill="white" fill-opacity="0.2" />
        <circle cx="117" cy="-2" r="10" fill="white" fill-opacity="0.2" />
        <circle cx="243" cy="33" r="4" fill="white" fill-opacity="0.2" />
    </g>
    <defs>
        <clipPath id="clip0_785_1450">
            <rect width="388" height="64" fill="white" />
        </clipPath>
    </defs>
</svg>
