<svg width="73" height="18" viewBox="0 0 73 18" fill="none" xmlns="http://www.w3.org/2000/svg">
    <path d="M0 0H73V18H16C7.16344 18 0 10.8366 0 2V0Z" fill="white" />
    <path
        d="M10.7715 12V8.74316H9.98535V8.09863H10.7715V4.8418H13.2422C13.7956 4.8418 14.2188 4.87598 14.5117 4.94434C14.9219 5.03874 15.2718 5.20964 15.5615 5.45703C15.9391 5.77604 16.2207 6.18457 16.4062 6.68262C16.5951 7.17741 16.6895 7.74382 16.6895 8.38184C16.6895 9.111 16.5739 9.73926 16.3428 10.2666C16.1117 10.7907 15.835 11.1715 15.5127 11.4092C15.1904 11.6468 14.8193 11.8161 14.3994 11.917C14.1683 11.9723 13.82 12 13.3545 12H10.7715ZM11.7188 11.1553H13.2471C13.7223 11.1553 14.0934 11.1113 14.3604 11.0234C14.6273 10.9355 14.8389 10.8135 14.9951 10.6572C15.2197 10.4326 15.3955 10.1315 15.5225 9.75391C15.6494 9.3763 15.7129 8.91569 15.7129 8.37207C15.7129 7.81217 15.6494 7.36458 15.5225 7.0293C15.3988 6.69401 15.236 6.42546 15.0342 6.22363C14.8324 6.02181 14.6077 5.88184 14.3604 5.80371C14.113 5.72559 13.7337 5.68652 13.2227 5.68652H11.7188V8.09863H13.6914V8.74316H11.7188V11.1553ZM21.2695 11.3604C20.944 11.637 20.6299 11.8324 20.3271 11.9463C20.0277 12.0602 19.7054 12.1172 19.3604 12.1172C18.7907 12.1172 18.3529 11.9788 18.0469 11.7021C17.7409 11.4222 17.5879 11.0658 17.5879 10.6328C17.5879 10.3789 17.6449 10.1478 17.7588 9.93945C17.876 9.72786 18.0273 9.55859 18.2129 9.43164C18.4017 9.30469 18.6133 9.20866 18.8477 9.14355C19.0202 9.09798 19.2806 9.05404 19.6289 9.01172C20.3385 8.92708 20.861 8.82617 21.1963 8.70898C21.1995 8.58854 21.2012 8.51204 21.2012 8.47949C21.2012 8.12142 21.1182 7.86914 20.9521 7.72266C20.7275 7.52409 20.3939 7.4248 19.9512 7.4248C19.5378 7.4248 19.2318 7.49805 19.0332 7.64453C18.8379 7.78776 18.693 8.04329 18.5986 8.41113L17.7393 8.29395C17.8174 7.92611 17.946 7.62988 18.125 7.40527C18.304 7.17741 18.5628 7.00326 18.9014 6.88281C19.2399 6.75911 19.6322 6.69727 20.0781 6.69727C20.5208 6.69727 20.8805 6.74935 21.1572 6.85352C21.4339 6.95768 21.6374 7.08952 21.7676 7.24902C21.8978 7.40527 21.9889 7.60384 22.041 7.84473C22.0703 7.99447 22.085 8.26465 22.085 8.65527V9.82715C22.085 10.6442 22.1029 11.1618 22.1387 11.3799C22.1777 11.5947 22.2526 11.8014 22.3633 12H21.4453C21.3542 11.8177 21.2956 11.6045 21.2695 11.3604ZM21.1963 9.39746C20.8773 9.52767 20.3988 9.63835 19.7607 9.72949C19.3994 9.78158 19.1439 9.84017 18.9941 9.90527C18.8444 9.97038 18.7288 10.0664 18.6475 10.1934C18.5661 10.3171 18.5254 10.4554 18.5254 10.6084C18.5254 10.8428 18.6133 11.0381 18.7891 11.1943C18.9681 11.3506 19.2285 11.4287 19.5703 11.4287C19.9089 11.4287 20.21 11.3555 20.4736 11.209C20.7373 11.0592 20.931 10.8558 21.0547 10.5986C21.1491 10.4001 21.1963 10.1071 21.1963 9.71973V9.39746ZM18.3447 6.04785C18.3415 5.70931 18.4342 5.43913 18.623 5.2373C18.8086 5.03548 19.0462 4.93457 19.3359 4.93457C19.5378 4.93457 19.8128 5.02246 20.1611 5.19824C20.3532 5.2959 20.5062 5.34473 20.6201 5.34473C20.7243 5.34473 20.804 5.31706 20.8594 5.26172C20.9147 5.20312 20.9538 5.08919 20.9766 4.91992H21.6113C21.6016 5.29102 21.5072 5.56934 21.3281 5.75488C21.1523 5.94043 20.9277 6.0332 20.6543 6.0332C20.4492 6.0332 20.179 5.94206 19.8438 5.75977C19.6257 5.64258 19.4661 5.58398 19.3652 5.58398C19.2546 5.58398 19.165 5.62305 19.0967 5.70117C19.0251 5.7793 18.9909 5.89486 18.9941 6.04785H18.3447ZM25.8838 10.4521L26.7529 10.3154C26.8018 10.6637 26.9368 10.9307 27.1582 11.1162C27.3828 11.3018 27.6953 11.3945 28.0957 11.3945C28.4993 11.3945 28.7988 11.3132 28.9941 11.1504C29.1895 10.9844 29.2871 10.7907 29.2871 10.5693C29.2871 10.3708 29.2008 10.2145 29.0283 10.1006C28.9079 10.0225 28.6084 9.92318 28.1299 9.80273C27.4854 9.63997 27.0378 9.5 26.7871 9.38281C26.5397 9.26237 26.3509 9.09798 26.2207 8.88965C26.0938 8.67806 26.0303 8.44531 26.0303 8.19141C26.0303 7.96029 26.0824 7.74707 26.1865 7.55176C26.2939 7.35319 26.4388 7.1888 26.6211 7.05859C26.7578 6.95768 26.9434 6.87305 27.1777 6.80469C27.4154 6.73307 27.6693 6.69727 27.9395 6.69727C28.3464 6.69727 28.7028 6.75586 29.0088 6.87305C29.318 6.99023 29.5459 7.14974 29.6924 7.35156C29.8389 7.55013 29.9398 7.81706 29.9951 8.15234L29.1357 8.26953C29.0967 8.0026 28.9827 7.79427 28.7939 7.64453C28.6084 7.49479 28.3447 7.41992 28.0029 7.41992C27.5993 7.41992 27.3112 7.48665 27.1387 7.62012C26.9661 7.75358 26.8799 7.90983 26.8799 8.08887C26.8799 8.2028 26.9157 8.30534 26.9873 8.39648C27.0589 8.49089 27.1712 8.56901 27.3242 8.63086C27.4121 8.66341 27.6709 8.73828 28.1006 8.85547C28.7223 9.02148 29.1553 9.1582 29.3994 9.26562C29.6468 9.36979 29.8405 9.52279 29.9805 9.72461C30.1204 9.92643 30.1904 10.1771 30.1904 10.4766C30.1904 10.7695 30.1042 11.0462 29.9316 11.3066C29.7624 11.5638 29.5166 11.764 29.1943 11.9072C28.8721 12.0472 28.5075 12.1172 28.1006 12.1172C27.4268 12.1172 26.9124 11.9772 26.5576 11.6973C26.2061 11.4173 25.9814 11.0023 25.8838 10.4521ZM36.0254 7.83496V6.81445H36.9678V7.62012C36.9678 8.13118 36.9092 8.48763 36.792 8.68945C36.4925 9.21029 36.0352 9.50326 35.4199 9.56836V12H34.6338V11.2383C34.2301 11.8242 33.6816 12.1172 32.9883 12.1172C32.6855 12.1172 32.4007 12.0602 32.1338 11.9463C31.8701 11.8291 31.6732 11.681 31.543 11.502C31.4128 11.3229 31.3216 11.1048 31.2695 10.8477C31.2337 10.6719 31.2158 10.3984 31.2158 10.0273V6.81445H32.0947V9.69043C32.0947 10.1559 32.1126 10.4652 32.1484 10.6182C32.2624 11.113 32.6009 11.3604 33.1641 11.3604C33.4342 11.3604 33.6833 11.292 33.9111 11.1553C34.1423 11.0186 34.305 10.8346 34.3994 10.6035C34.4938 10.3724 34.541 10.0355 34.541 9.59277V6.81445H35.4199V9.19727C35.8333 9.12565 36.1426 8.93197 36.3477 8.61621C36.4388 8.47949 36.4844 8.21908 36.4844 7.83496H36.0254ZM33.042 5.58398C33.2275 5.56445 33.3464 5.54655 33.3984 5.53027C33.571 5.47168 33.6589 5.38053 33.6621 5.25684C33.6654 5.18197 33.6198 5.11849 33.5254 5.06641C33.3887 4.99154 33.1722 4.9541 32.876 4.9541C32.7751 4.9541 32.6221 4.96061 32.417 4.97363L32.3633 4.47559C32.4902 4.44954 32.7246 4.43815 33.0664 4.44141C33.4668 4.44466 33.7939 4.50977 34.0479 4.63672C34.3278 4.77344 34.471 4.96387 34.4775 5.20801C34.4906 5.61165 34.1943 5.85091 33.5889 5.92578V6.16992H33.042V5.58398ZM44.082 12V11.3457C43.7533 11.86 43.2699 12.1172 42.6318 12.1172C42.2184 12.1172 41.8376 12.0033 41.4893 11.7754C41.1442 11.5475 40.8757 11.2301 40.6836 10.8232C40.4948 10.4131 40.4004 9.94271 40.4004 9.41211C40.4004 8.89453 40.4867 8.42578 40.6592 8.00586C40.8317 7.58268 41.0905 7.25879 41.4355 7.03418C41.7806 6.80957 42.1663 6.69727 42.5928 6.69727C42.9053 6.69727 43.1836 6.764 43.4277 6.89746C43.6719 7.02767 43.8704 7.19857 44.0234 7.41016V4.8418H44.8975V12H44.082ZM41.3037 9.41211C41.3037 10.0762 41.4437 10.5726 41.7236 10.9014C42.0036 11.2301 42.334 11.3945 42.7148 11.3945C43.099 11.3945 43.4245 11.2383 43.6914 10.9258C43.9616 10.61 44.0967 10.1299 44.0967 9.48535C44.0967 8.77572 43.96 8.25488 43.6865 7.92285C43.4131 7.59082 43.0762 7.4248 42.6758 7.4248C42.2852 7.4248 41.958 7.58431 41.6943 7.90332C41.4339 8.22233 41.3037 8.72526 41.3037 9.41211ZM49.6826 12V11.2383C49.279 11.8242 48.7305 12.1172 48.0371 12.1172C47.7311 12.1172 47.4447 12.0586 47.1777 11.9414C46.9141 11.8242 46.7171 11.6777 46.5869 11.502C46.46 11.3229 46.3704 11.1048 46.3184 10.8477C46.2826 10.6751 46.2646 10.4017 46.2646 10.0273V6.81445H47.1436V9.69043C47.1436 10.1494 47.1615 10.4587 47.1973 10.6182C47.2526 10.8493 47.3698 11.0316 47.5488 11.165C47.7279 11.2952 47.9492 11.3604 48.2129 11.3604C48.4766 11.3604 48.724 11.2936 48.9551 11.1602C49.1862 11.0234 49.349 10.8395 49.4434 10.6084C49.541 10.374 49.5898 10.0355 49.5898 9.59277V6.81445H50.4688V12H49.6826ZM47.7051 13.5869V12.5859H48.7061V13.5869H47.7051ZM51.8506 12V6.81445H52.6416V7.55176C53.0225 6.9821 53.5726 6.69727 54.292 6.69727C54.6045 6.69727 54.891 6.75423 55.1514 6.86816C55.415 6.97884 55.612 7.12533 55.7422 7.30762C55.8724 7.48991 55.9635 7.70638 56.0156 7.95703C56.0482 8.11979 56.0645 8.40462 56.0645 8.81152V12H55.1855V8.8457C55.1855 8.48763 55.1514 8.2207 55.083 8.04492C55.0146 7.86589 54.8926 7.72428 54.7168 7.62012C54.5443 7.5127 54.3408 7.45898 54.1064 7.45898C53.7321 7.45898 53.4082 7.5778 53.1348 7.81543C52.8646 8.05306 52.7295 8.50391 52.7295 9.16797V12H51.8506ZM57.2559 12.4297L58.1104 12.5566C58.1462 12.8203 58.2454 13.0124 58.4082 13.1328C58.6263 13.2956 58.9242 13.377 59.3018 13.377C59.7087 13.377 60.0228 13.2956 60.2441 13.1328C60.4655 12.9701 60.6152 12.7422 60.6934 12.4492C60.7389 12.2702 60.7601 11.8942 60.7568 11.3213C60.3727 11.7738 59.8942 12 59.3213 12C58.6084 12 58.0566 11.7428 57.666 11.2285C57.2754 10.7142 57.0801 10.0973 57.0801 9.37793C57.0801 8.88314 57.1696 8.42741 57.3486 8.01074C57.5277 7.59082 57.7865 7.26693 58.125 7.03906C58.4668 6.8112 58.8672 6.69727 59.3262 6.69727C59.9382 6.69727 60.4427 6.94466 60.8398 7.43945V6.81445H61.6504V11.2969C61.6504 12.1042 61.5674 12.6755 61.4014 13.0107C61.2386 13.3493 60.9782 13.6162 60.6201 13.8115C60.2653 14.0068 59.8275 14.1045 59.3066 14.1045C58.6882 14.1045 58.1885 13.9645 57.8076 13.6846C57.4268 13.4079 57.2428 12.9896 57.2559 12.4297ZM57.9834 9.31445C57.9834 9.99479 58.1185 10.4912 58.3887 10.8037C58.6589 11.1162 58.9974 11.2725 59.4043 11.2725C59.8079 11.2725 60.1465 11.1178 60.4199 10.8086C60.6934 10.4961 60.8301 10.0078 60.8301 9.34375C60.8301 8.70898 60.6885 8.23047 60.4053 7.9082C60.1253 7.58594 59.7868 7.4248 59.3896 7.4248C58.999 7.4248 58.667 7.58431 58.3936 7.90332C58.1201 8.21908 57.9834 8.68945 57.9834 9.31445Z"
        fill="#515154" />
</svg>
