<svg width="20" height="19" viewBox="0 0 20 19" fill="none" xmlns="http://www.w3.org/2000/svg">
    <path
        d="M10.0947 0.82422C5.11133 0.82422 0.998046 4.9375 0.998046 9.91211C0.998047 14.8867 5.12012 19 10.1035 19C15.0781 19 19.1826 14.8867 19.1826 9.91211C19.1826 4.9375 15.0693 0.824219 10.0947 0.82422ZM10.0947 8.40918C10.6133 8.40918 10.9121 8.69922 10.9297 9.22656L11.0527 13.6123C11.0703 14.1572 10.6836 14.5352 10.1035 14.5352C9.54102 14.5352 9.12793 14.1484 9.14551 13.6035L9.28613 9.22656C9.30371 8.69043 9.59375 8.40918 10.0947 8.40918ZM10.0947 5.36816C10.6924 5.36816 11.1846 5.79883 11.1846 6.37891C11.1846 6.95899 10.7012 7.38965 10.0947 7.38965C9.49707 7.38965 9.01367 6.95899 9.01367 6.37891C9.01367 5.79004 9.50586 5.36816 10.0947 5.36816Z"
        fill="#339901" />
</svg>
