<svg width="22" height="22" viewBox="0 0 22 22" fill="none" xmlns="http://www.w3.org/2000/svg">
    <path
        d="M19.2224 8.46677C17.1691 5.2401 14.1647 3.38232 11.0002 3.38232C9.418 3.38232 7.88022 3.84455 6.47577 4.70677C5.07133 5.57788 3.80911 6.84899 2.77799 8.46677C1.88911 9.86232 1.88911 12.129 2.77799 13.5245C4.83133 16.7601 7.83577 18.609 11.0002 18.609C12.5824 18.609 14.1202 18.1468 15.5247 17.2845C16.9291 16.4134 18.1913 15.1423 19.2224 13.5245C20.1113 12.1379 20.1113 9.86232 19.2224 8.46677ZM11.0002 14.5912C9.00911 14.5912 7.40911 12.9823 7.40911 11.0001C7.40911 9.01788 9.00911 7.40899 11.0002 7.40899C12.9913 7.40899 14.5913 9.01788 14.5913 11.0001C14.5913 12.9823 12.9913 14.5912 11.0002 14.5912Z"
        fill="#0066CC" />
    <path
        d="M11.0001 8.45801C9.60458 8.45801 8.4668 9.59579 8.4668 11.0002C8.4668 12.3958 9.60458 13.5336 11.0001 13.5336C12.3957 13.5336 13.5424 12.3958 13.5424 11.0002C13.5424 9.60467 12.3957 8.45801 11.0001 8.45801Z"
        fill="#0066CC" />
</svg>
