<svg width="109" height="109" viewBox="0 0 109 109" fill="none" xmlns="http://www.w3.org/2000/svg">
    <path
        d="M20.5381 74.7061V77H11.8809C11.9746 76.1328 12.2559 75.3125 12.7246 74.5391C13.1934 73.7598 14.1191 72.7285 15.502 71.4453C16.6152 70.4082 17.2979 69.7051 17.5498 69.3359C17.8896 68.8262 18.0596 68.3223 18.0596 67.8242C18.0596 67.2734 17.9102 66.8516 17.6113 66.5586C17.3184 66.2598 16.9111 66.1104 16.3896 66.1104C15.874 66.1104 15.4639 66.2656 15.1592 66.5762C14.8545 66.8867 14.6787 67.4023 14.6318 68.123L12.1709 67.877C12.3174 66.5176 12.7773 65.542 13.5508 64.9502C14.3242 64.3584 15.291 64.0625 16.4512 64.0625C17.7227 64.0625 18.7217 64.4053 19.4482 65.0908C20.1748 65.7764 20.5381 66.6289 20.5381 67.6484C20.5381 68.2285 20.4326 68.7822 20.2217 69.3096C20.0166 69.8311 19.6885 70.3789 19.2373 70.9531C18.9385 71.334 18.3994 71.8818 17.6201 72.5967C16.8408 73.3115 16.3457 73.7861 16.1348 74.0205C15.9297 74.2549 15.7627 74.4834 15.6338 74.7061H20.5381ZM26.3916 64.0625C27.6396 64.0625 28.6152 64.5078 29.3184 65.3984C30.1562 66.4531 30.5752 68.2021 30.5752 70.6455C30.5752 73.083 30.1533 74.835 29.3096 75.9014C28.6123 76.7803 27.6396 77.2197 26.3916 77.2197C25.1377 77.2197 24.127 76.7393 23.3594 75.7783C22.5918 74.8115 22.208 73.0918 22.208 70.6191C22.208 68.1934 22.6299 66.4473 23.4736 65.3809C24.1709 64.502 25.1436 64.0625 26.3916 64.0625ZM26.3916 66.1104C26.0928 66.1104 25.8262 66.207 25.5918 66.4004C25.3574 66.5879 25.1758 66.9277 25.0469 67.4199C24.877 68.0586 24.792 69.1338 24.792 70.6455C24.792 72.1572 24.8682 73.1973 25.0205 73.7656C25.1729 74.3281 25.3633 74.7031 25.5918 74.8906C25.8262 75.0781 26.0928 75.1719 26.3916 75.1719C26.6904 75.1719 26.957 75.0781 27.1914 74.8906C27.4258 74.6973 27.6074 74.3545 27.7363 73.8623C27.9062 73.2295 27.9912 72.1572 27.9912 70.6455C27.9912 69.1338 27.915 68.0967 27.7627 67.5342C27.6104 66.9658 27.417 66.5879 27.1826 66.4004C26.9541 66.207 26.6904 66.1104 26.3916 66.1104ZM36.4111 64.0625C37.6592 64.0625 38.6348 64.5078 39.3379 65.3984C40.1758 66.4531 40.5947 68.2021 40.5947 70.6455C40.5947 73.083 40.1729 74.835 39.3291 75.9014C38.6318 76.7803 37.6592 77.2197 36.4111 77.2197C35.1572 77.2197 34.1465 76.7393 33.3789 75.7783C32.6113 74.8115 32.2275 73.0918 32.2275 70.6191C32.2275 68.1934 32.6494 66.4473 33.4932 65.3809C34.1904 64.502 35.1631 64.0625 36.4111 64.0625ZM36.4111 66.1104C36.1123 66.1104 35.8457 66.207 35.6113 66.4004C35.377 66.5879 35.1953 66.9277 35.0664 67.4199C34.8965 68.0586 34.8115 69.1338 34.8115 70.6455C34.8115 72.1572 34.8877 73.1973 35.04 73.7656C35.1924 74.3281 35.3828 74.7031 35.6113 74.8906C35.8457 75.0781 36.1123 75.1719 36.4111 75.1719C36.71 75.1719 36.9766 75.0781 37.2109 74.8906C37.4453 74.6973 37.627 74.3545 37.7559 73.8623C37.9258 73.2295 38.0107 72.1572 38.0107 70.6455C38.0107 69.1338 37.9346 68.0967 37.7822 67.5342C37.6299 66.9658 37.4365 66.5879 37.2021 66.4004C36.9736 66.207 36.71 66.1104 36.4111 66.1104ZM46.4307 64.0625C47.6787 64.0625 48.6543 64.5078 49.3574 65.3984C50.1953 66.4531 50.6143 68.2021 50.6143 70.6455C50.6143 73.083 50.1924 74.835 49.3486 75.9014C48.6514 76.7803 47.6787 77.2197 46.4307 77.2197C45.1768 77.2197 44.166 76.7393 43.3984 75.7783C42.6309 74.8115 42.2471 73.0918 42.2471 70.6191C42.2471 68.1934 42.6689 66.4473 43.5127 65.3809C44.21 64.502 45.1826 64.0625 46.4307 64.0625ZM46.4307 66.1104C46.1318 66.1104 45.8652 66.207 45.6309 66.4004C45.3965 66.5879 45.2148 66.9277 45.0859 67.4199C44.916 68.0586 44.8311 69.1338 44.8311 70.6455C44.8311 72.1572 44.9072 73.1973 45.0596 73.7656C45.2119 74.3281 45.4023 74.7031 45.6309 74.8906C45.8652 75.0781 46.1318 75.1719 46.4307 75.1719C46.7295 75.1719 46.9961 75.0781 47.2305 74.8906C47.4648 74.6973 47.6465 74.3545 47.7754 73.8623C47.9453 73.2295 48.0303 72.1572 48.0303 70.6455C48.0303 69.1338 47.9541 68.0967 47.8018 67.5342C47.6494 66.9658 47.4561 66.5879 47.2217 66.4004C46.9932 66.207 46.7295 66.1104 46.4307 66.1104ZM63.9033 66.6729H61.2402V65.0293H63.9033V64.1152H66.373V65.0293H67.3486V66.6729H66.373V77H64.0791V75.6289C63.6982 76.1621 63.2471 76.5605 62.7256 76.8242C62.21 77.082 61.6885 77.2109 61.1611 77.2109C60.0889 77.2109 59.1689 76.7803 58.4014 75.9189C57.6396 75.0518 57.2588 73.8447 57.2588 72.2979C57.2588 70.7158 57.6309 69.5146 58.375 68.6943C59.1191 67.8682 60.0596 67.4551 61.1963 67.4551C62.2393 67.4551 63.1416 67.8887 63.9033 68.7559V66.6729ZM59.7812 72.1309C59.7812 73.127 59.9189 73.8477 60.1943 74.293C60.5928 74.9375 61.1494 75.2598 61.8643 75.2598C62.4326 75.2598 62.916 75.0195 63.3145 74.5391C63.7129 74.0527 63.9121 73.3291 63.9121 72.3682C63.9121 71.2959 63.7188 70.5254 63.332 70.0566C62.9453 69.582 62.4502 69.3447 61.8467 69.3447C61.2607 69.3447 60.7686 69.5791 60.3701 70.0479C59.9775 70.5107 59.7812 71.2051 59.7812 72.1309ZM68.8164 66.4004V64.1152H71.2861V66.4004H68.8164ZM68.8164 77V67.666H71.2861V77H68.8164ZM79.2314 74.0293L81.6924 74.4424C81.376 75.3447 80.875 76.0332 80.1895 76.5078C79.5098 76.9766 78.6572 77.2109 77.6318 77.2109C76.0088 77.2109 74.8076 76.6807 74.0283 75.6201C73.4131 74.7705 73.1055 73.6982 73.1055 72.4033C73.1055 70.8564 73.5098 69.6465 74.3184 68.7734C75.127 67.8945 76.1494 67.4551 77.3857 67.4551C78.7744 67.4551 79.8701 67.915 80.6729 68.835C81.4756 69.749 81.8594 71.1523 81.8242 73.0449H75.6367C75.6543 73.7773 75.8535 74.3486 76.2344 74.7588C76.6152 75.1631 77.0898 75.3652 77.6582 75.3652C78.0449 75.3652 78.3701 75.2598 78.6338 75.0488C78.8975 74.8379 79.0967 74.498 79.2314 74.0293ZM79.3721 71.5332C79.3545 70.8184 79.1699 70.2764 78.8184 69.9072C78.4668 69.5322 78.0391 69.3447 77.5352 69.3447C76.9961 69.3447 76.5508 69.541 76.1992 69.9336C75.8477 70.3262 75.6748 70.8594 75.6807 71.5332H79.3721ZM74.4941 66.4883L76.3398 63.8955H78.625L80.4443 66.4883H78.458L77.4385 65.1787L76.4893 66.4883H74.4941ZM76.9463 62.6738C77.2803 62.6387 77.4941 62.6064 77.5879 62.5771C77.8984 62.501 78.0566 62.3662 78.0625 62.1729C78.0684 62.0381 77.9863 61.9238 77.8164 61.8301C77.5703 61.6953 77.1807 61.6279 76.6475 61.6279C76.4658 61.6279 76.1904 61.6396 75.8213 61.6631L75.7246 60.7666C75.9531 60.7197 76.375 60.6992 76.9902 60.7051C77.7109 60.7109 78.2998 60.8281 78.7568 61.0566C79.2607 61.3027 79.5186 61.6455 79.5303 62.085C79.5537 62.6943 79.0205 63.0664 77.9307 63.2012V63.6406H76.9463V62.6738ZM83.6611 67.666H85.9375V68.9404C86.752 67.9502 87.7217 67.4551 88.8467 67.4551C89.4443 67.4551 89.9629 67.5781 90.4023 67.8242C90.8418 68.0703 91.2021 68.4424 91.4834 68.9404C91.8936 68.4424 92.3359 68.0703 92.8105 67.8242C93.2852 67.5781 93.792 67.4551 94.3311 67.4551C95.0166 67.4551 95.5967 67.5957 96.0713 67.877C96.5459 68.1523 96.9004 68.5596 97.1348 69.0986C97.3047 69.4971 97.3896 70.1416 97.3896 71.0322V77H94.9199V71.665C94.9199 70.7393 94.835 70.1416 94.665 69.8721C94.4365 69.5205 94.085 69.3447 93.6104 69.3447C93.2646 69.3447 92.9395 69.4502 92.6348 69.6611C92.3301 69.8721 92.1104 70.1826 91.9756 70.5928C91.8408 70.9971 91.7734 71.6387 91.7734 72.5176V77H89.3037V71.8848C89.3037 70.9766 89.2598 70.3906 89.1719 70.127C89.084 69.8633 88.9463 69.667 88.7588 69.5381C88.5771 69.4092 88.3281 69.3447 88.0117 69.3447C87.6309 69.3447 87.2881 69.4473 86.9834 69.6523C86.6787 69.8574 86.459 70.1533 86.3242 70.54C86.1953 70.9268 86.1309 71.5684 86.1309 72.4648V77H83.6611V67.666Z"
        fill="white" />
    <path
        d="M50.5 2.3094C52.9752 0.880338 56.0248 0.880339 58.5 2.3094L97.6984 24.9406C100.174 26.3697 101.698 29.0107 101.698 31.8688V77.1312C101.698 79.9893 100.174 82.6303 97.6984 84.0594L58.5 106.691C56.0248 108.12 52.9752 108.12 50.5 106.691L11.3016 84.0594C8.82641 82.6303 7.30162 79.9893 7.30162 77.1312V31.8688C7.30162 29.0107 8.82641 26.3697 11.3016 24.9406L50.5 2.3094Z"
        fill="#E3E3E3" />
    <path
        d="M51.0001 9.23109C53.1659 7.98066 55.8343 7.98066 58.0001 9.23109L91.9542 28.8345C94.12 30.0849 95.4542 32.3958 95.4542 34.8967V74.1035C95.4542 76.6043 94.12 78.9152 91.9542 80.1656L58.0001 99.7691C55.8343 101.019 53.1659 101.019 51.0001 99.7691L17.046 80.1656C14.8802 78.9152 13.546 76.6043 13.546 74.1035V34.8967C13.546 32.3958 14.8802 30.0849 17.046 28.8345L51.0001 9.23109Z"
        fill="#86868B" stroke="#798B9B" stroke-width="2" />
    <path
        d="M36 32H73.5V33.5H72H71.5V56.5C70.5093 60.0382 66.7304 66.5809 59 68.4741C59.3333 70.4827 61 75.2 65 78H45C46.8474 76.3161 50.4379 72.0534 50.021 68.4741C42.3663 66.5809 38.8492 60.0382 38 56.5V33.5H36V32Z"
        fill="#EBEBEB" />
    <path
        d="M80 38.5H70.5V41.5H76C76 47.1 72.3333 50.5 70.5 51.5V56.5C76.9 54.9 79.5 43.8333 80 38.5Z"
        fill="#EBEBEB" />
    <path
        d="M29 38.5H38.5V41.5H33C33 47.1 36.6667 50.5 38.5 51.5V56.5C32.1 54.9 29.5 43.8333 29 38.5Z"
        fill="#EBEBEB" />
    <path
        d="M55.2935 56.6006H53.6748C53.6706 56.3678 53.6685 56.2261 53.6685 56.1753C53.6685 55.6506 53.7552 55.2189 53.9287 54.8804C54.1022 54.5418 54.4492 54.161 54.9697 53.7378C55.4902 53.3146 55.8013 53.0374 55.9028 52.9062C56.0594 52.6989 56.1377 52.4704 56.1377 52.2207C56.1377 51.8737 55.998 51.5775 55.7188 51.332C55.4437 51.0824 55.0713 50.9575 54.6016 50.9575C54.1488 50.9575 53.77 51.0866 53.4653 51.3447C53.1606 51.6029 52.9512 51.9964 52.8369 52.5254L51.1992 52.3223C51.2458 51.5648 51.5674 50.9215 52.1641 50.3926C52.765 49.8636 53.5521 49.5991 54.5254 49.5991C55.5495 49.5991 56.3641 49.8678 56.9692 50.4053C57.5744 50.9385 57.877 51.5605 57.877 52.2715C57.877 52.665 57.7648 53.0374 57.5405 53.3887C57.3205 53.7399 56.8465 54.2181 56.1187 54.8232C55.742 55.1364 55.5072 55.3882 55.4141 55.5786C55.3252 55.769 55.285 56.1097 55.2935 56.6006ZM53.6748 59V57.2163H55.4585V59H53.6748Z"
        fill="#86868B" />
</svg>
