<svg width="20" height="20" viewBox="0 0 20 20" fill="none" xmlns="http://www.w3.org/2000/svg">
<path d="M13.3337 10.7503V14.2503C13.3337 17.167 12.167 18.3337 9.25033 18.3337H5.75033C2.83366 18.3337 1.66699 17.167 1.66699 14.2503V10.7503C1.66699 7.83366 2.83366 6.66699 5.75033 6.66699H9.25033C12.167 6.66699 13.3337 7.83366 13.3337 10.7503Z" stroke="#86868B" stroke-width="1.5" stroke-linecap="round" stroke-linejoin="round"/>
<path d="M18.3337 5.75033V9.25033C18.3337 12.167 17.167 13.3337 14.2503 13.3337H13.3337V10.7503C13.3337 7.83366 12.167 6.66699 9.25033 6.66699H6.66699V5.75033C6.66699 2.83366 7.83366 1.66699 10.7503 1.66699H14.2503C17.167 1.66699 18.3337 2.83366 18.3337 5.75033Z" stroke="#86868B" stroke-width="1.5" stroke-linecap="round" stroke-linejoin="round"/>
</svg>
