<svg width="15" height="16" viewBox="0 0 15 16" fill="none" xmlns="http://www.w3.org/2000/svg">
    <path
        d="M3.87231 15.2383H11.1277C13.0385 15.2383 14.25 14.2604 14.25 12.524V6.54535C14.25 4.38116 13.4616 3.65735 11.6538 3.65735C11.2315 3.65735 10.8438 3.40402 10.65 3.01316L10.1515 1.96364C9.83308 1.30497 8.95615 1.14307 8.25 1.14307H6.75C6.03692 1.14307 5.16692 1.30497 4.84846 1.96364L4.35 3.01316C4.15615 3.40402 3.76846 3.65735 3.34615 3.65735C1.61538 3.65735 0.75 4.38116 0.75 6.54535V12.524C0.75 14.3085 1.96154 15.2383 3.87231 15.2383Z"
        stroke="#666666" stroke-width="1.2" stroke-linecap="round" stroke-linejoin="round" />
    <path d="M6 5.3335L9 5.3335" stroke="#666666" stroke-width="1.2" stroke-linecap="round"
        stroke-linejoin="round" />
    <path
        d="M7.5 12.1906C8.73923 12.1906 9.75 11.1638 9.75 9.90485C9.75 8.64595 8.73923 7.61914 7.5 7.61914C6.26077 7.61914 5.25 8.64595 5.25 9.90485C5.25 11.1638 6.26077 12.1906 7.5 12.1906Z"
        stroke="#666666" stroke-width="1.2" stroke-linecap="round" stroke-linejoin="round" />
</svg>
