<svg width="109" height="109" viewBox="0 0 109 109" fill="none" xmlns="http://www.w3.org/2000/svg">
    <path
        d="M20.5381 77.7061V80H11.8809C11.9746 79.1328 12.2559 78.3125 12.7246 77.5391C13.1934 76.7598 14.1191 75.7285 15.502 74.4453C16.6152 73.4082 17.2979 72.7051 17.5498 72.3359C17.8896 71.8262 18.0596 71.3223 18.0596 70.8242C18.0596 70.2734 17.9102 69.8516 17.6113 69.5586C17.3184 69.2598 16.9111 69.1104 16.3896 69.1104C15.874 69.1104 15.4639 69.2656 15.1592 69.5762C14.8545 69.8867 14.6787 70.4023 14.6318 71.123L12.1709 70.877C12.3174 69.5176 12.7773 68.542 13.5508 67.9502C14.3242 67.3584 15.291 67.0625 16.4512 67.0625C17.7227 67.0625 18.7217 67.4053 19.4482 68.0908C20.1748 68.7764 20.5381 69.6289 20.5381 70.6484C20.5381 71.2285 20.4326 71.7822 20.2217 72.3096C20.0166 72.8311 19.6885 73.3789 19.2373 73.9531C18.9385 74.334 18.3994 74.8818 17.6201 75.5967C16.8408 76.3115 16.3457 76.7861 16.1348 77.0205C15.9297 77.2549 15.7627 77.4834 15.6338 77.7061H20.5381ZM26.3916 67.0625C27.6396 67.0625 28.6152 67.5078 29.3184 68.3984C30.1562 69.4531 30.5752 71.2021 30.5752 73.6455C30.5752 76.083 30.1533 77.835 29.3096 78.9014C28.6123 79.7803 27.6396 80.2197 26.3916 80.2197C25.1377 80.2197 24.127 79.7393 23.3594 78.7783C22.5918 77.8115 22.208 76.0918 22.208 73.6191C22.208 71.1934 22.6299 69.4473 23.4736 68.3809C24.1709 67.502 25.1436 67.0625 26.3916 67.0625ZM26.3916 69.1104C26.0928 69.1104 25.8262 69.207 25.5918 69.4004C25.3574 69.5879 25.1758 69.9277 25.0469 70.4199C24.877 71.0586 24.792 72.1338 24.792 73.6455C24.792 75.1572 24.8682 76.1973 25.0205 76.7656C25.1729 77.3281 25.3633 77.7031 25.5918 77.8906C25.8262 78.0781 26.0928 78.1719 26.3916 78.1719C26.6904 78.1719 26.957 78.0781 27.1914 77.8906C27.4258 77.6973 27.6074 77.3545 27.7363 76.8623C27.9062 76.2295 27.9912 75.1572 27.9912 73.6455C27.9912 72.1338 27.915 71.0967 27.7627 70.5342C27.6104 69.9658 27.417 69.5879 27.1826 69.4004C26.9541 69.207 26.6904 69.1104 26.3916 69.1104ZM36.4111 67.0625C37.6592 67.0625 38.6348 67.5078 39.3379 68.3984C40.1758 69.4531 40.5947 71.2021 40.5947 73.6455C40.5947 76.083 40.1729 77.835 39.3291 78.9014C38.6318 79.7803 37.6592 80.2197 36.4111 80.2197C35.1572 80.2197 34.1465 79.7393 33.3789 78.7783C32.6113 77.8115 32.2275 76.0918 32.2275 73.6191C32.2275 71.1934 32.6494 69.4473 33.4932 68.3809C34.1904 67.502 35.1631 67.0625 36.4111 67.0625ZM36.4111 69.1104C36.1123 69.1104 35.8457 69.207 35.6113 69.4004C35.377 69.5879 35.1953 69.9277 35.0664 70.4199C34.8965 71.0586 34.8115 72.1338 34.8115 73.6455C34.8115 75.1572 34.8877 76.1973 35.04 76.7656C35.1924 77.3281 35.3828 77.7031 35.6113 77.8906C35.8457 78.0781 36.1123 78.1719 36.4111 78.1719C36.71 78.1719 36.9766 78.0781 37.2109 77.8906C37.4453 77.6973 37.627 77.3545 37.7559 76.8623C37.9258 76.2295 38.0107 75.1572 38.0107 73.6455C38.0107 72.1338 37.9346 71.0967 37.7822 70.5342C37.6299 69.9658 37.4365 69.5879 37.2021 69.4004C36.9736 69.207 36.71 69.1104 36.4111 69.1104ZM46.4307 67.0625C47.6787 67.0625 48.6543 67.5078 49.3574 68.3984C50.1953 69.4531 50.6143 71.2021 50.6143 73.6455C50.6143 76.083 50.1924 77.835 49.3486 78.9014C48.6514 79.7803 47.6787 80.2197 46.4307 80.2197C45.1768 80.2197 44.166 79.7393 43.3984 78.7783C42.6309 77.8115 42.2471 76.0918 42.2471 73.6191C42.2471 71.1934 42.6689 69.4473 43.5127 68.3809C44.21 67.502 45.1826 67.0625 46.4307 67.0625ZM46.4307 69.1104C46.1318 69.1104 45.8652 69.207 45.6309 69.4004C45.3965 69.5879 45.2148 69.9277 45.0859 70.4199C44.916 71.0586 44.8311 72.1338 44.8311 73.6455C44.8311 75.1572 44.9072 76.1973 45.0596 76.7656C45.2119 77.3281 45.4023 77.7031 45.6309 77.8906C45.8652 78.0781 46.1318 78.1719 46.4307 78.1719C46.7295 78.1719 46.9961 78.0781 47.2305 77.8906C47.4648 77.6973 47.6465 77.3545 47.7754 76.8623C47.9453 76.2295 48.0303 75.1572 48.0303 73.6455C48.0303 72.1338 47.9541 71.0967 47.8018 70.5342C47.6494 69.9658 47.4561 69.5879 47.2217 69.4004C46.9932 69.207 46.7295 69.1104 46.4307 69.1104ZM63.9033 69.6729H61.2402V68.0293H63.9033V67.1152H66.373V68.0293H67.3486V69.6729H66.373V80H64.0791V78.6289C63.6982 79.1621 63.2471 79.5605 62.7256 79.8242C62.21 80.082 61.6885 80.2109 61.1611 80.2109C60.0889 80.2109 59.1689 79.7803 58.4014 78.9189C57.6396 78.0518 57.2588 76.8447 57.2588 75.2979C57.2588 73.7158 57.6309 72.5146 58.375 71.6943C59.1191 70.8682 60.0596 70.4551 61.1963 70.4551C62.2393 70.4551 63.1416 70.8887 63.9033 71.7559V69.6729ZM59.7812 75.1309C59.7812 76.127 59.9189 76.8477 60.1943 77.293C60.5928 77.9375 61.1494 78.2598 61.8643 78.2598C62.4326 78.2598 62.916 78.0195 63.3145 77.5391C63.7129 77.0527 63.9121 76.3291 63.9121 75.3682C63.9121 74.2959 63.7188 73.5254 63.332 73.0566C62.9453 72.582 62.4502 72.3447 61.8467 72.3447C61.2607 72.3447 60.7686 72.5791 60.3701 73.0479C59.9775 73.5107 59.7812 74.2051 59.7812 75.1309ZM68.8164 69.4004V67.1152H71.2861V69.4004H68.8164ZM68.8164 80V70.666H71.2861V80H68.8164ZM79.2314 77.0293L81.6924 77.4424C81.376 78.3447 80.875 79.0332 80.1895 79.5078C79.5098 79.9766 78.6572 80.2109 77.6318 80.2109C76.0088 80.2109 74.8076 79.6807 74.0283 78.6201C73.4131 77.7705 73.1055 76.6982 73.1055 75.4033C73.1055 73.8564 73.5098 72.6465 74.3184 71.7734C75.127 70.8945 76.1494 70.4551 77.3857 70.4551C78.7744 70.4551 79.8701 70.915 80.6729 71.835C81.4756 72.749 81.8594 74.1523 81.8242 76.0449H75.6367C75.6543 76.7773 75.8535 77.3486 76.2344 77.7588C76.6152 78.1631 77.0898 78.3652 77.6582 78.3652C78.0449 78.3652 78.3701 78.2598 78.6338 78.0488C78.8975 77.8379 79.0967 77.498 79.2314 77.0293ZM79.3721 74.5332C79.3545 73.8184 79.1699 73.2764 78.8184 72.9072C78.4668 72.5322 78.0391 72.3447 77.5352 72.3447C76.9961 72.3447 76.5508 72.541 76.1992 72.9336C75.8477 73.3262 75.6748 73.8594 75.6807 74.5332H79.3721ZM74.4941 69.4883L76.3398 66.8955H78.625L80.4443 69.4883H78.458L77.4385 68.1787L76.4893 69.4883H74.4941ZM76.9463 65.6738C77.2803 65.6387 77.4941 65.6064 77.5879 65.5771C77.8984 65.501 78.0566 65.3662 78.0625 65.1729C78.0684 65.0381 77.9863 64.9238 77.8164 64.8301C77.5703 64.6953 77.1807 64.6279 76.6475 64.6279C76.4658 64.6279 76.1904 64.6396 75.8213 64.6631L75.7246 63.7666C75.9531 63.7197 76.375 63.6992 76.9902 63.7051C77.7109 63.7109 78.2998 63.8281 78.7568 64.0566C79.2607 64.3027 79.5186 64.6455 79.5303 65.085C79.5537 65.6943 79.0205 66.0664 77.9307 66.2012V66.6406H76.9463V65.6738ZM83.6611 70.666H85.9375V71.9404C86.752 70.9502 87.7217 70.4551 88.8467 70.4551C89.4443 70.4551 89.9629 70.5781 90.4023 70.8242C90.8418 71.0703 91.2021 71.4424 91.4834 71.9404C91.8936 71.4424 92.3359 71.0703 92.8105 70.8242C93.2852 70.5781 93.792 70.4551 94.3311 70.4551C95.0166 70.4551 95.5967 70.5957 96.0713 70.877C96.5459 71.1523 96.9004 71.5596 97.1348 72.0986C97.3047 72.4971 97.3896 73.1416 97.3896 74.0322V80H94.9199V74.665C94.9199 73.7393 94.835 73.1416 94.665 72.8721C94.4365 72.5205 94.085 72.3447 93.6104 72.3447C93.2646 72.3447 92.9395 72.4502 92.6348 72.6611C92.3301 72.8721 92.1104 73.1826 91.9756 73.5928C91.8408 73.9971 91.7734 74.6387 91.7734 75.5176V80H89.3037V74.8848C89.3037 73.9766 89.2598 73.3906 89.1719 73.127C89.084 72.8633 88.9463 72.667 88.7588 72.5381C88.5771 72.4092 88.3281 72.3447 88.0117 72.3447C87.6309 72.3447 87.2881 72.4473 86.9834 72.6523C86.6787 72.8574 86.459 73.1533 86.3242 73.54C86.1953 73.9268 86.1309 74.5684 86.1309 75.4648V80H83.6611V70.666Z"
        fill="white" />
    <path
        d="M50.5 2.3094C52.9752 0.880338 56.0248 0.880339 58.5 2.3094L97.6984 24.9406C100.174 26.3697 101.698 29.0107 101.698 31.8688V77.1312C101.698 79.9893 100.174 82.6303 97.6984 84.0594L58.5 106.691C56.0248 108.12 52.9752 108.12 50.5 106.691L11.3016 84.0594C8.82641 82.6303 7.30162 79.9893 7.30162 77.1312V31.8688C7.30162 29.0107 8.82641 26.3697 11.3016 24.9406L50.5 2.3094Z"
        fill="#CDDEED" />
    <path
        d="M51.0001 9.23109C53.1659 7.98066 55.8343 7.98066 58.0001 9.23109L91.9542 28.8345C94.12 30.0849 95.4542 32.3958 95.4542 34.8967V74.1035C95.4542 76.6043 94.12 78.9152 91.9542 80.1656L58.0001 99.7691C55.8343 101.019 53.1659 101.019 51.0001 99.7691L17.046 80.1656C14.8802 78.9152 13.546 76.6043 13.546 74.1035V34.8967C13.546 32.3958 14.8802 30.0849 17.046 28.8345L51.0001 9.23109Z"
        fill="url(#paint0_linear_747_4926)" stroke="#798B9B" stroke-width="2" />
    <path
        d="M36 32H73.5V33.5H72H71.5V56.5C70.5093 60.0382 66.7304 66.5809 59 68.4741C59.3333 70.4827 61 75.2 65 78H45C46.8474 76.3161 50.4379 72.0534 50.021 68.4741C42.3663 66.5809 38.8492 60.0382 38 56.5V33.5H36V32Z"
        fill="#DEEEFB" />
    <path
        d="M80 38.5H70.5V41.5H76C76 47.1 72.3333 50.5 70.5 51.5V56.5C76.9 54.9 79.5 43.8333 80 38.5Z"
        fill="#DEEEFB" />
    <path
        d="M29 38.5H38.5V41.5H33C33 47.1 36.6667 50.5 38.5 51.5V56.5C32.1 54.9 29.5 43.8333 29 38.5Z"
        fill="#DEEEFB" />
    <path d="M67.5 13.5L69.5 10.5L86 20L84 23L67.5 13.5Z" fill="white" />
    <path d="M16 85L18 82L34.5 91.5L32.5 94.5L16 85Z" fill="white" />
    <path d="M96.2266 34.5L99.8246 34.7321L99.8474 75H96.4994L96.2266 34.5Z" fill="white" />
    <path
        d="M67 37L67.6735 39.0729H69.8532L68.0898 40.3541L68.7634 42.4271L67 41.1459L65.2366 42.4271L65.9102 40.3541L64.1468 39.0729H66.3265L67 37Z"
        fill="white" />
    <defs>
        <linearGradient id="paint0_linear_747_4926" x1="33" y1="23" x2="73.5" y2="87"
            gradientUnits="userSpaceOnUse">
            <stop stop-color="#8D97C8" />
            <stop offset="1" stop-color="#D1D8E4" />
        </linearGradient>
    </defs>
</svg>
