<svg width="109" height="109" viewBox="0 0 109 109" fill="none" xmlns="http://www.w3.org/2000/svg">
    <path
        d="M50.5 2.3094C52.9752 0.880338 56.0248 0.880339 58.5 2.3094L97.6984 24.9406C100.174 26.3697 101.698 29.0107 101.698 31.8688V77.1312C101.698 79.9893 100.174 82.6303 97.6984 84.0594L58.5 106.691C56.0248 108.12 52.9752 108.12 50.5 106.691L11.3016 84.0594C8.82641 82.6303 7.30162 79.9893 7.30162 77.1312V31.8688C7.30162 29.0107 8.82641 26.3697 11.3016 24.9406L50.5 2.3094Z"
        fill="#9984FB" />
    <path
        d="M51.0001 9.23109C53.1659 7.98066 55.8343 7.98066 58.0001 9.23109L91.9542 28.8345C94.12 30.0849 95.4542 32.3958 95.4542 34.8967V74.1035C95.4542 76.6043 94.12 78.9152 91.9542 80.1656L58.0001 99.7691C55.8343 101.019 53.1659 101.019 51.0001 99.7691L17.046 80.1656C14.8802 78.9152 13.546 76.6043 13.546 74.1035V34.8967C13.546 32.3958 14.8802 30.0849 17.046 28.8345L51.0001 9.23109Z"
        fill="url(#paint0_linear_747_4536)" stroke="#350994" stroke-width="2" />
    <path
        d="M36 32H73.5V33.5H72H71.5V56.5C70.5093 60.0382 66.7304 66.5809 59 68.4741C59.3333 70.4827 61 75.2 65 78H45C46.8474 76.3161 50.4379 72.0534 50.021 68.4741C42.3663 66.5809 38.8492 60.0382 38 56.5V33.5H36V32Z"
        fill="#E1D8FF" />
    <path
        d="M80 38.5H70.5V41.5H76C76 47.1 72.3333 50.5 70.5 51.5V56.5C76.9 54.9 79.5 43.8333 80 38.5Z"
        fill="#E1D8FF" />
    <path
        d="M29 38.5H38.5V41.5H33C33 47.1 36.6667 50.5 38.5 51.5V56.5C32.1 54.9 29.5 43.8333 29 38.5Z"
        fill="#E1D8FF" />
    <path d="M67.5 13.5L69.5 10.5L86 20L84 23L67.5 13.5Z" fill="#FAF7FF" />
    <path d="M16 85L18 82L34.5 91.5L32.5 94.5L16 85Z" fill="#FAF7FF" />
    <path d="M96.2266 34.5L99.8246 34.7321L99.8474 75H96.4994L96.2266 34.5Z" fill="#FAF7FF" />
    <path
        d="M67 37L67.6735 39.0729H69.8532L68.0898 40.3541L68.7634 42.4271L67 41.1459L65.2366 42.4271L65.9102 40.3541L64.1468 39.0729H66.3265L67 37Z"
        fill="#FAF7FF" />
    <defs>
        <linearGradient id="paint0_linear_747_4536" x1="30" y1="15.5" x2="79" y2="92.5"
            gradientUnits="userSpaceOnUse">
            <stop stop-color="#5F22EC" />
            <stop offset="1" stop-color="#BBACEF" />
        </linearGradient>
    </defs>
</svg>
