<svg width="92" height="20" viewBox="0 0 92 20" fill="none" xmlns="http://www.w3.org/2000/svg">
<path fill-rule="evenodd" clip-rule="evenodd" d="M79.7551 10.3904L76.6352 12.6343V18.9106H72.932V0.697906H76.6352V8.46965L86.6912 0.697906H91.5969L82.4612 8.0684L91.5969 18.9136H87.0565L79.7551 10.3904ZM51.4522 6.43841V18.9084H48.0811V0.697906H51.4238L63.9327 12.9056V0.697906H67.3035V18.9136H64.2933L51.4522 6.44372V6.43841ZM42.8414 12.3147C42.8414 14.2373 42.4883 15.6798 41.7825 16.6414C40.487 18.37 37.7759 19.2354 33.6491 19.2373C30.6588 19.2373 28.3848 18.7739 26.8267 17.8465C25.9742 17.3459 25.323 16.5621 24.9864 15.6315C24.6123 14.5679 24.4333 13.4449 24.4584 12.3177V0.697906H28.1631V11.1926C28.1385 11.9723 28.2041 12.7523 28.3583 13.5172C28.4751 13.9956 28.7255 14.4307 29.0806 14.7715C30.0312 15.6788 31.6111 16.1332 33.8203 16.1351C36.0292 16.1373 37.6071 15.6825 38.554 14.7715C38.9087 14.4304 39.1592 13.9956 39.2763 13.5172C39.4317 12.7523 39.4983 11.9723 39.4751 11.1926V0.691512H42.8441V12.311L42.8414 12.3147ZM4.62167 15.9202H10.0531C11.3771 15.9928 12.7005 15.7637 13.9234 15.2507C15.7817 14.3267 16.7104 12.511 16.7088 9.80325C16.8196 8.15969 16.2805 6.53799 15.2073 5.28913C14.6416 4.7162 13.9421 4.29295 13.1723 4.05822C12.1568 3.78151 11.1057 3.65587 10.0531 3.68568H4.61869V15.9202H4.62167ZM0.917694 0.694941H10.4174C12.2027 0.618936 13.9871 0.871766 15.6814 1.44188C17.3674 2.15012 18.7357 3.45251 19.528 5.10247C20.2074 6.57404 20.5405 8.18232 20.5024 9.80325C20.5024 12.9346 19.5277 15.3293 17.5783 16.9871C16.7279 17.6894 15.7334 18.1954 14.6654 18.4688C13.274 18.7959 11.8467 18.9445 10.4182 18.9106H0.917694V0.697906V0.694941Z" fill="#333333"/>
</svg>
