<svg width="302" height="122" viewBox="0 0 302 122" fill="none" xmlns="http://www.w3.org/2000/svg">
    <path
        d="M270.254 13.7874L282.329 8.85518L282.526 9.33818L282.043 9.53547L281.882 9.60123L284.907 17.0072C285.054 18.2768 284.697 20.8806 282.457 22.507C282.829 23.1099 283.986 24.4097 285.642 24.7852L279.202 27.4157C279.575 26.6305 280.171 24.7856 279.566 23.6879C276.852 24.0851 274.859 22.4409 274.12 21.4133L271.095 14.0073L270.451 14.2704L270.254 13.7874Z"
        fill="#9984FB" />
    <path
        d="M285.277 10.0933L282.218 11.3428L282.612 12.3088L284.383 11.5854C285.12 13.3886 284.386 14.9656 283.928 15.5288L284.585 17.1388C286.436 15.7818 285.817 11.8764 285.277 10.0933Z"
        fill="#9984FB" />
    <path
        d="M268.855 16.8008L271.914 15.5513L272.309 16.5173L270.538 17.2407C271.274 19.0439 272.902 19.6564 273.624 19.7373L274.282 21.3473C272.01 21.6738 269.718 18.4523 268.855 16.8008Z"
        fill="#9984FB" />
    <path
        d="M71.127 90.8938L77.1645 88.4277L77.2631 88.6692L77.0216 88.7679L76.9411 88.8007L78.4536 92.5037C78.5268 93.1385 78.3487 94.4404 77.2286 95.2536C77.4143 95.5551 77.9929 96.2049 78.821 96.3927L75.601 97.7079C75.7877 97.3153 76.0855 96.3929 75.783 95.8441C74.4261 96.0427 73.4295 95.2206 73.0601 94.7068L71.5476 91.0038L71.2256 91.1353L71.127 90.8938Z"
        fill="#A990EF" />
    <path
        d="M78.6389 89.0466L77.1094 89.6714L77.3067 90.1544L78.1922 89.7927C78.5604 90.6943 78.1937 91.4828 77.9643 91.7644L78.2931 92.5694C79.2183 91.8909 78.9091 89.9382 78.6389 89.0466Z"
        fill="#A990EF" />
    <path
        d="M70.4275 92.4004L71.957 91.7756L72.1543 92.2586L71.2688 92.6203C71.6371 93.5219 72.451 93.8282 72.8119 93.8686L73.1408 94.6736C72.0051 94.8369 70.8588 93.2262 70.4275 92.4004Z"
        fill="#A990EF" />
    <path
        d="M10 32L10.6735 34.0729H12.8532L11.0898 35.3541L11.7634 37.4271L10 36.1459L8.23664 37.4271L8.91019 35.3541L7.14683 34.0729H9.32646L10 32Z"
        fill="#7C4DEE" />
    <path
        d="M218 5L218.674 7.07295H220.853L219.09 8.3541L219.763 10.4271L218 9.1459L216.237 10.4271L216.91 8.3541L215.147 7.07295H217.326L218 5Z"
        fill="#AF9BEF" />
    <path
        d="M279 111L279.674 113.073H281.853L280.09 114.354L280.763 116.427L279 115.146L277.237 116.427L277.91 114.354L276.147 113.073H278.326L279 111Z"
        fill="white" />
    <path
        d="M239 83L239.674 85.0729H241.853L240.09 86.3541L240.763 88.4271L239 87.1459L237.237 88.4271L237.91 86.3541L236.147 85.0729H238.326L239 83Z"
        fill="#AF9BEF" />
    <path
        d="M76 3L76.6735 5.07295H78.8532L77.0898 6.3541L77.7634 8.42705L76 7.1459L74.2366 8.42705L74.9102 6.3541L73.1468 5.07295H75.3265L76 3Z"
        fill="#AF9BEF" />
    <path
        d="M48 111L48.6735 113.073H50.8532L49.0898 114.354L49.7634 116.427L48 115.146L46.2366 116.427L46.9102 114.354L45.1468 113.073H47.3265L48 111Z"
        fill="#A990EF" />
    <path
        d="M242 46.5774C242.619 46.2201 243.381 46.2201 244 46.5774L248.928 49.4226C249.547 49.7799 249.928 50.4402 249.928 51.1547V56.8453C249.928 57.5598 249.547 58.2201 248.928 58.5774L244 61.4226C243.381 61.7799 242.619 61.7799 242 61.4226L237.072 58.5774C236.453 58.2201 236.072 57.5598 236.072 56.8453V51.1547C236.072 50.4402 236.453 49.7799 237.072 49.4226L242 46.5774Z"
        fill="#AF9BEF" />
    <path
        d="M60 46.5774C59.3812 46.2201 58.6188 46.2201 58 46.5774L53.0718 49.4226C52.453 49.7799 52.0718 50.4402 52.0718 51.1547V56.8453C52.0718 57.5598 52.453 58.2201 53.0718 58.5774L58 61.4226C58.6188 61.7799 59.3812 61.7799 60 61.4226L64.9282 58.5774C65.547 58.2201 65.9282 57.5598 65.9282 56.8453V51.1547C65.9282 50.4402 65.547 49.7799 64.9282 49.4226L60 46.5774Z"
        fill="#7C4DEE" />
    <path
        d="M272 80.5774C272.619 80.2201 273.381 80.2201 274 80.5774L277.196 82.4226C277.815 82.7799 278.196 83.4402 278.196 84.1547V87.8453C278.196 88.5598 277.815 89.2201 277.196 89.5774L274 91.4226C273.381 91.7799 272.619 91.7799 272 91.4226L268.804 89.5774C268.185 89.2201 267.804 88.5598 267.804 87.8453V84.1547C267.804 83.4402 268.185 82.7799 268.804 82.4226L272 80.5774Z"
        fill="#7C4DEE" />
    <path
        d="M30 80.5774C29.3812 80.2201 28.6188 80.2201 28 80.5774L24.8038 82.4226C24.185 82.7799 23.8038 83.4402 23.8038 84.1547V87.8453C23.8038 88.5598 24.185 89.2201 24.8038 89.5774L28 91.4226C28.6188 91.7799 29.3812 91.7799 30 91.4226L33.1962 89.5774C33.815 89.2201 34.1962 88.5598 34.1962 87.8453V84.1547C34.1962 83.4402 33.815 82.7799 33.1962 82.4226L30 80.5774Z"
        fill="#AF9BEF" />
    <path
        d="M233 112.577C233.619 112.22 234.381 112.22 235 112.577L237.33 113.923C237.949 114.28 238.33 114.94 238.33 115.655V118.345C238.33 119.06 237.949 119.72 237.33 120.077L235 121.423C234.381 121.78 233.619 121.78 233 121.423L230.67 120.077C230.051 119.72 229.67 119.06 229.67 118.345V115.655C229.67 114.94 230.051 114.28 230.67 113.923L233 112.577Z"
        fill="#AF9BEF" />
    <path
        d="M242 0.57735C242.619 0.220085 243.381 0.220085 244 0.57735L246.33 1.92265C246.949 2.27992 247.33 2.94017 247.33 3.6547V6.3453C247.33 7.05983 246.949 7.72008 246.33 8.07735L244 9.42265C243.381 9.77992 242.619 9.77992 242 9.42265L239.67 8.07735C239.051 7.72008 238.67 7.05983 238.67 6.3453V3.6547C238.67 2.94017 239.051 2.27992 239.67 1.92265L242 0.57735Z"
        fill="#AF9BEF" />
    <path
        d="M296 49.5774C296.619 49.2201 297.381 49.2201 298 49.5774L300.33 50.9226C300.949 51.2799 301.33 51.9402 301.33 52.6547V55.3453C301.33 56.0598 300.949 56.7201 300.33 57.0774L298 58.4227C297.381 58.7799 296.619 58.7799 296 58.4226L293.67 57.0774C293.051 56.7201 292.67 56.0598 292.67 55.3453V52.6547C292.67 51.9402 293.051 51.2799 293.67 50.9226L296 49.5774Z"
        fill="#AF9BEF" />
    <path
        d="M69 112.577C68.3812 112.22 67.6188 112.22 67 112.577L64.6699 113.923C64.0511 114.28 63.6699 114.94 63.6699 115.655V118.345C63.6699 119.06 64.0511 119.72 64.6699 120.077L67 121.423C67.6188 121.78 68.3812 121.78 69 121.423L71.3301 120.077C71.9489 119.72 72.3301 119.06 72.3301 118.345V115.655C72.3301 114.94 71.9489 114.28 71.3301 113.923L69 112.577Z"
        fill="#9984FB" />
    <path
        d="M29 0.57735C28.3812 0.220085 27.6188 0.220085 27 0.57735L24.6699 1.92265C24.0511 2.27992 23.6699 2.94017 23.6699 3.6547V6.3453C23.6699 7.05983 24.0511 7.72008 24.6699 8.07735L27 9.42265C27.6188 9.77992 28.3812 9.77992 29 9.42265L31.3301 8.07735C31.9489 7.72008 32.3301 7.05983 32.3301 6.3453V3.6547C32.3301 2.94017 31.9489 2.27992 31.3301 1.92265L29 0.57735Z"
        fill="#AF9BEF" />
    <path
        d="M6 58.5774C5.3812 58.2201 4.6188 58.2201 4 58.5774L1.66987 59.9226C1.05107 60.2799 0.669872 60.9402 0.669872 61.6547V64.3453C0.669872 65.0598 1.05107 65.7201 1.66987 66.0774L4 67.4227C4.6188 67.7799 5.3812 67.7799 6 67.4226L8.33013 66.0774C8.94893 65.7201 9.33013 65.0598 9.33013 64.3453V61.6547C9.33013 60.9402 8.94893 60.2799 8.33013 59.9226L6 58.5774Z"
        fill="#AF9BEF" />
</svg>
