<svg width="22" height="22" viewBox="0 0 22 22" fill="none" xmlns="http://www.w3.org/2000/svg">
    <path
        d="M19.2398 8.4937C18.9821 8.08481 18.7065 7.70259 18.4221 7.34704C18.0932 6.92926 17.471 6.8937 17.0976 7.26704L14.431 9.9337C14.6265 10.5204 14.6621 11.1959 14.4843 11.8981C14.1732 13.1515 13.1598 14.1648 11.9065 14.4759C11.2043 14.6537 10.5287 14.6181 9.94207 14.4226C9.94207 14.4226 8.67096 15.6937 7.7554 16.6093C7.31096 17.0537 7.45318 17.8359 8.04874 18.067C8.99985 18.4315 9.98651 18.6181 10.9998 18.6181C12.5821 18.6181 14.1198 18.1559 15.5243 17.2937C16.9554 16.4048 18.2443 15.0981 19.2843 13.4359C20.1287 12.0937 20.0843 9.83593 19.2398 8.4937Z"
        fill="#0066CC" />
    <path
        d="M12.7948 9.20467L9.2037 12.7958C8.75036 12.3336 8.45703 11.6936 8.45703 11.0002C8.45703 9.60467 9.59481 8.45801 10.9993 8.45801C11.6926 8.45801 12.3326 8.75134 12.7948 9.20467Z"
        fill="#0066CC" />
    <path
        d="M16.5558 5.44455L13.5424 8.45788C12.8936 7.8001 11.9958 7.40899 11.0002 7.40899C9.00911 7.40899 7.40911 9.01788 7.40911 11.0001C7.40911 11.9957 7.80911 12.8934 8.458 13.5423L5.45355 16.5557H5.44466C4.45799 15.7557 3.55133 14.7334 2.77799 13.5245C1.88911 12.129 1.88911 9.86232 2.77799 8.46677C3.80911 6.84899 5.07133 5.57788 6.47577 4.70677C7.88022 3.85344 9.418 3.38232 11.0002 3.38232C12.9824 3.38232 14.9024 4.11121 16.5558 5.44455Z"
        fill="#0066CC" />
    <path
        d="M13.542 11.0002C13.542 12.3958 12.4042 13.5425 10.9997 13.5425C10.9464 13.5425 10.902 13.5425 10.8486 13.5247L13.5242 10.8491C13.542 10.9025 13.542 10.9469 13.542 11.0002Z"
        fill="#0066CC" />
    <path
        d="M19.6841 2.31523C19.4175 2.04857 18.9819 2.04857 18.7152 2.31523L2.31523 18.7241C2.04857 18.9908 2.04857 19.4263 2.31523 19.693C2.44857 19.8175 2.61746 19.8886 2.79523 19.8886C2.97301 19.8886 3.1419 19.8175 3.27523 19.6841L19.6841 3.27523C19.9597 3.00857 19.9597 2.5819 19.6841 2.31523Z"
        fill="#0066CC" />
</svg>
