<svg width="22" height="22" viewBox="0 0 22 22" fill="none" xmlns="http://www.w3.org/2000/svg">
    <path
        d="M19.2224 8.46726C17.1691 5.24059 14.1647 3.38281 11.0002 3.38281C9.418 3.38281 7.88022 3.84503 6.47577 4.70726C5.07133 5.57837 3.80911 6.84948 2.77799 8.46726C1.88911 9.86281 1.88911 12.1295 2.77799 13.525C4.83133 16.7606 7.83577 18.6095 11.0002 18.6095C12.5824 18.6095 14.1202 18.1473 15.5247 17.285C16.9291 16.4139 18.1913 15.1428 19.2224 13.525C20.1113 12.1384 20.1113 9.86281 19.2224 8.46726ZM11.0002 14.5917C9.00911 14.5917 7.40911 12.9828 7.40911 11.0006C7.40911 9.01837 9.00911 7.40948 11.0002 7.40948C12.9913 7.40948 14.5913 9.01837 14.5913 11.0006C14.5913 12.9828 12.9913 14.5917 11.0002 14.5917Z"
        fill="#C0C0C0" />
    <path
        d="M11.0001 8.4585C9.60458 8.4585 8.4668 9.59627 8.4668 11.0007C8.4668 12.3963 9.60458 13.5341 11.0001 13.5341C12.3957 13.5341 13.5424 12.3963 13.5424 11.0007C13.5424 9.60516 12.3957 8.4585 11.0001 8.4585Z"
        fill="#C0C0C0" />
</svg>
