<svg width="14" height="16" viewBox="0 0 14 16" fill="none" xmlns="http://www.w3.org/2000/svg">
    <path
        d="M5.40826 0.918993C6.39323 0.350318 7.60677 0.350318 8.59174 0.918993L12.3365 3.08101C13.3214 3.64968 13.9282 4.70064 13.9282 5.83799V10.162C13.9282 11.2994 13.3214 12.3503 12.3365 12.919L8.59174 15.081C7.60677 15.6497 6.39323 15.6497 5.40826 15.081L1.66354 12.919C0.678566 12.3503 0.0717969 11.2994 0.0717969 10.162V5.83799C0.0717969 4.70064 0.678566 3.64968 1.66354 3.08101L5.40826 0.918993Z"
        fill="url(#paint0_linear_720_5487)" />
    <path
        d="M5.40826 0.918993C6.39323 0.350318 7.60677 0.350318 8.59174 0.918993L12.3365 3.08101C13.3214 3.64968 13.9282 4.70064 13.9282 5.83799V10.162C13.9282 11.2994 13.3214 12.3503 12.3365 12.919L8.59174 15.081C7.60677 15.6497 6.39323 15.6497 5.40826 15.081L1.66354 12.919C0.678566 12.3503 0.0717969 11.2994 0.0717969 10.162V5.83799C0.0717969 4.70064 0.678566 3.64968 1.66354 3.08101L5.40826 0.918993Z"
        fill="#FFCB45" />
    <defs>
        <linearGradient id="paint0_linear_720_5487" x1="3.44953" y1="2.79815" x2="10.1376"
            y2="13.367" gradientUnits="userSpaceOnUse">
            <stop stop-color="#8D97C8" />
            <stop offset="1" stop-color="#D1D8E4" />
        </linearGradient>
    </defs>
</svg>
