<svg width="131" height="35" viewBox="0 0 131 35" fill="none" xmlns="http://www.w3.org/2000/svg">
<g clip-path="url(#clip0_23_181)">
    <defs>
        <clipPath id="clip0_23_181">
            <rect width="131" height="35" fill="white"/>
        </clipPath>
    </defs>
<path d="M85.4707 22.4466C85.447 22.5175 85.0638 23.8812 84.1266 25.2892C83.3179 26.5069 82.4775 27.7217 81.1551 27.7465C79.8554 27.7709 79.4369 26.9519 77.9526 26.9519C76.4653 26.9519 76.0005 27.7217 74.7719 27.7709C73.4943 27.8203 72.5217 26.4542 71.7065 25.2416C70.0391 22.7586 68.7665 18.2267 70.4772 15.1691C71.3254 13.649 72.8448 12.6872 74.4928 12.6626C75.7476 12.638 76.9297 13.5305 77.6967 13.5305C78.4633 13.5305 79.9003 12.457 81.4119 12.6139C82.0443 12.6415 83.8207 12.8768 84.9624 14.5969C84.8714 14.6565 82.8424 15.8726 82.8647 18.4019C82.8904 21.4281 85.4411 22.4332 85.4707 22.4466ZM80.4216 10.9735C81.1013 10.1275 81.5572 8.95223 81.4316 7.78192C80.4554 7.81856 79.2725 8.45166 78.5725 9.2964C77.9445 10.0445 77.394 11.2416 77.5429 12.3872C78.6305 12.4741 79.744 11.8171 80.4216 10.9735Z" fill="#333333"/>
<path d="M91.3438 18.1272L93.4088 12.2058H94.0242L96.09 18.1272H95.4155L94.8043 16.2828H92.5996L91.9887 18.1272H91.3438ZM93.6957 13.0048L92.7808 15.7485H94.6273L93.7124 13.0048H93.6957Z" fill="#333333"/>
<path d="M100.351 18.1274H99.7323V17.5065H99.7066C99.5466 17.876 99.1294 18.2012 98.4131 18.2012C97.5026 18.2012 96.8447 17.6669 96.8447 16.6295V13.5823H97.4683V16.4468C97.4683 17.3067 97.9531 17.6147 98.5726 17.6147C99.2685 17.6147 99.7279 17.1463 99.7279 16.3992V13.5823H100.351V18.1274Z" fill="#333333"/>
<path d="M101.877 12.441H102.496V13.5826H103.411V14.125H102.496V16.9203C102.496 17.4805 102.678 17.6196 103.238 17.6196C103.314 17.6196 103.386 17.6196 103.449 17.6105V18.1356C103.386 18.1493 103.234 18.1666 103.091 18.1666C102.075 18.1666 101.877 17.7629 101.877 16.8813V14.125H101.258V13.5826H101.877V12.441Z" fill="#333333"/>
<path d="M104.415 11.8895H105.035V14.1984H105.055C105.191 13.8909 105.579 13.5088 106.307 13.5088C107.298 13.5088 107.951 14.242 107.951 15.2798V18.1277H107.327V15.4059C107.327 14.6458 106.956 14.0947 106.215 14.0947C105.465 14.0947 105.035 14.6022 105.035 15.4231V18.1277H104.415V11.8895Z" fill="#333333"/>
<path d="M112.778 15.649V16.0567C112.778 17.3288 112.176 18.2012 110.915 18.2012C109.655 18.2012 109.048 17.3368 109.048 16.0567V15.649C109.048 14.4203 109.651 13.509 110.915 13.509C112.176 13.509 112.778 14.3808 112.778 15.649ZM109.663 15.7222V15.9875C109.663 16.9073 109.996 17.6325 110.915 17.6325C111.83 17.6325 112.154 16.9119 112.154 15.9875V15.7222C112.154 14.8195 111.83 14.0687 110.915 14.0687C110 14.0687 109.663 14.8155 109.663 15.7222Z" fill="#333333"/>
<path d="M113.967 13.5826H114.582V14.1463H114.599C114.73 13.8599 114.95 13.5128 115.72 13.5128C115.813 13.5128 115.905 13.5219 115.99 13.53V14.1251C115.923 14.1118 115.784 14.1078 115.649 14.1078C114.869 14.1078 114.582 14.5976 114.582 15.2626V18.1277H113.967V13.5826Z" fill="#333333"/>
<path d="M117.2 12.0324C117.445 12.0324 117.631 12.2193 117.631 12.4666C117.631 12.7187 117.445 12.9054 117.2 12.9054C116.973 12.9054 116.783 12.7187 116.783 12.4666C116.783 12.2193 116.973 12.0324 117.2 12.0324ZM116.897 13.5824H117.516V18.1275H116.897V13.5824Z" fill="#333333"/>
<path d="M118.717 17.6717L121.149 14.1469V14.1079H118.7V13.5825H121.925V14.0379L119.488 17.5588V17.5933H121.942V18.1276H118.717V17.6717Z" fill="#333333"/>
<path d="M122.781 16.0955V15.662C122.781 14.4201 123.367 13.5088 124.568 13.5088C125.77 13.5088 126.356 14.3898 126.356 15.6527V16.0129H123.405V16.1391C123.405 16.9249 123.768 17.6322 124.619 17.6322C125.285 17.6322 125.559 17.2594 125.639 16.9204H126.292C126.195 17.4846 125.744 18.201 124.623 18.201C123.38 18.201 122.781 17.3196 122.781 16.0955ZM125.732 15.462V15.4495C125.732 14.6412 125.298 14.0684 124.568 14.0684C123.843 14.0684 123.405 14.6457 123.405 15.4495V15.462H125.732Z" fill="#333333"/>
<path d="M130.271 14.234H130.288V11.8895H130.907V18.1277H130.321V17.4197H130.304C130.208 17.7801 129.736 18.197 128.969 18.197C127.839 18.197 127.232 17.359 127.232 16.1654V15.5405C127.232 14.3554 127.843 13.5043 128.969 13.5043C129.702 13.5043 130.132 13.8599 130.271 14.234ZM127.852 15.6619V16.0394C127.852 16.9862 128.252 17.6368 129.069 17.6368C129.845 17.6368 130.288 17.0291 130.288 16.0525V15.6309C130.288 14.6939 129.833 14.073 129.049 14.073C128.248 14.073 127.852 14.7242 127.852 15.6619Z" fill="#333333"/>
<path d="M95.7734 22.8336C95.7734 23.797 95.221 24.2879 94.6816 24.4746L95.8744 27.0183H95.1537L94.0531 24.6086H92.5698V27.0183H91.9424V21.0975H93.9651C95.2089 21.0975 95.7734 21.913 95.7734 22.8336ZM93.8558 24.0233C94.6944 24.0233 95.1286 23.6022 95.1286 22.877C95.1286 22.0957 94.6438 21.6788 93.8851 21.6788H92.5698V24.0233H93.8558Z" fill="#333333"/>
<path d="M96.7305 24.9869V24.5526C96.7305 23.3114 97.3167 22.3994 98.5175 22.3994C99.7188 22.3994 100.305 23.281 100.305 24.5439V24.9043H97.3546V25.0302C97.3546 25.8161 97.7171 26.5236 98.5686 26.5236C99.2343 26.5236 99.508 26.1501 99.5887 25.8115H100.242C100.145 26.3757 99.6936 27.0918 98.5723 27.0918C97.3294 27.0918 96.7305 26.2108 96.7305 24.9869ZM99.6814 24.3532V24.3401C99.6814 23.5325 99.2471 22.959 98.5175 22.959C97.7926 22.959 97.3546 23.5371 97.3546 24.3401V24.3532H99.6814Z" fill="#333333"/>
<path d="M102.78 22.3994C103.821 22.3994 104.319 23.0296 104.319 23.7409H103.733C103.712 23.3852 103.488 22.9246 102.75 22.9246C102.202 22.9246 101.794 23.1944 101.794 23.6802C101.794 24.2404 102.354 24.3315 102.889 24.4402C103.716 24.596 104.428 24.8131 104.428 25.7033C104.428 26.6014 103.716 27.0918 102.717 27.0918C101.748 27.0918 101.099 26.5929 101.099 25.8115H101.705C101.764 26.2284 102.089 26.5584 102.742 26.5584C103.475 26.5584 103.812 26.2239 103.812 25.7766C103.812 25.2341 103.311 25.1259 102.679 24.9952C101.848 24.8131 101.183 24.6265 101.183 23.7455C101.183 22.8165 101.941 22.3994 102.78 22.3994Z" fill="#333333"/>
<path d="M105.283 24.9869V24.5526C105.283 23.3114 105.87 22.3994 107.071 22.3994C108.272 22.3994 108.858 23.281 108.858 24.5439V24.9043H105.907V25.0302C105.907 25.8161 106.27 26.5236 107.121 26.5236C107.787 26.5236 108.061 26.1501 108.141 25.8115H108.795C108.698 26.3757 108.246 27.0918 107.126 27.0918C105.882 27.0918 105.283 26.2108 105.283 24.9869ZM108.234 24.3532V24.3401C108.234 23.5325 107.8 22.959 107.071 22.959C106.346 22.959 105.907 23.5371 105.907 24.3401V24.3532H108.234Z" fill="#333333"/>
<path d="M110.603 20.7806H109.983V27.0188H110.603V20.7806Z" fill="#333333"/>
<path d="M112.618 20.7806H111.998V27.0188H112.618V20.7806Z" fill="#333333"/>
<path d="M113.765 24.9869V24.5526C113.765 23.3114 114.35 22.3994 115.552 22.3994C116.753 22.3994 117.339 23.281 117.339 24.5439V24.9043H114.388V25.0302C114.388 25.8161 114.751 26.5236 115.602 26.5236C116.268 26.5236 116.542 26.1501 116.622 25.8115H117.276C117.179 26.3757 116.728 27.0918 115.607 27.0918C114.363 27.0918 113.765 26.2108 113.765 24.9869ZM116.715 24.3532V24.3401C116.715 23.5325 116.281 22.959 115.552 22.959C114.827 22.959 114.388 23.5371 114.388 24.3401V24.3532H116.715Z" fill="#333333"/>
<path d="M118.503 22.4732H119.118V23.0374H119.135C119.265 22.751 119.485 22.4039 120.256 22.4039C120.348 22.4039 120.441 22.413 120.526 22.4211V23.0157C120.458 23.0029 120.319 22.9984 120.184 22.9984C119.404 22.9984 119.118 23.4887 119.118 24.1537V27.0188H118.503V22.4732Z" fill="#333333"/>
<line opacity="0.5" x1="63.3496" y1="2.18556e-08" x2="63.3496" y2="45" stroke="#333333"/>
<path d="M0.504883 34.4432V0.553528H56.6324V34.4432H0.504883Z" stroke="#333333"/>
<path fill-rule="evenodd" clip-rule="evenodd" d="M48.9534 25.6193L48.1631 26.2046V27.84H47.2249V23.0927H48.1631V25.118L50.7109 23.0927H51.9545L49.6393 25.0139L51.9545 27.84H50.8038L48.9534 25.6193ZM41.7823 24.5893V27.84H40.9281V23.0927H41.7757L44.9447 26.2739V23.0927H45.799V27.84H45.0359L41.7823 24.5893ZM39.6011 26.1209C39.6011 26.6222 39.5116 26.9974 39.3324 27.2482C39.0037 27.6985 38.317 27.9247 37.2714 27.9247C36.5139 27.9247 35.9376 27.8033 35.5429 27.5621C35.3165 27.4183 35.1607 27.2258 35.0768 26.9848C34.9878 26.7431 34.9426 26.4549 34.9426 26.1209V23.0927H35.8809V25.8284C35.8809 26.1022 35.8976 26.3038 35.9305 26.4343C35.9632 26.5643 36.0245 26.6731 36.1139 26.7608C36.3548 26.9974 36.7548 27.1164 37.3148 27.1164C37.8736 27.1164 38.2736 26.9974 38.5143 26.7608C38.6039 26.6731 38.6651 26.5643 38.6979 26.4343C38.7301 26.3038 38.7467 26.1022 38.7467 25.8284V23.0927H39.6011V26.1209ZM29.9167 27.0605H31.2938C31.7258 27.0605 32.054 27.0025 32.2749 26.8862C32.7454 26.6445 32.9799 26.172 32.9799 25.4669C32.9799 24.9554 32.8542 24.5631 32.6001 24.2904C32.4577 24.142 32.2864 24.0348 32.0841 23.969C31.8821 23.9043 31.6181 23.8716 31.2938 23.8716H29.9167V27.0605ZM28.9785 23.0927H31.3855C31.9634 23.0927 32.4082 23.158 32.7192 23.2874C33.1574 23.4828 33.4817 23.8006 33.6941 24.2417C33.8582 24.5893 33.9405 24.9971 33.9405 25.4669C33.9405 26.2826 33.6941 26.9073 33.1997 27.3386C32.9879 27.5191 32.7425 27.6485 32.4616 27.7247C32.182 27.802 31.8227 27.84 31.3855 27.84H28.9785V23.0927Z" fill="#333333"/>
<path fill-rule="evenodd" clip-rule="evenodd" d="M23.9796 25.1322H25.6454C25.9746 25.1322 26.2082 25.0977 26.344 25.0279C26.4378 24.986 26.5123 24.9162 26.5668 24.8188C26.6198 24.7215 26.6475 24.6143 26.6475 24.4991C26.6475 24.3875 26.6198 24.2827 26.5668 24.1854C26.5123 24.0884 26.4378 24.018 26.344 23.9763C26.2082 23.9063 25.9746 23.872 25.6454 23.872H23.9796V25.1322ZM23.9796 25.9117V27.8398H23.0408V23.0925H25.7661C26.1142 23.0925 26.3874 23.1164 26.5875 23.1623C26.7877 23.2086 26.9635 23.2872 27.1136 23.3988C27.2693 23.5191 27.3911 23.6749 27.4802 23.8651C27.5653 24.0645 27.6074 24.2758 27.6074 24.4991C27.6074 24.8188 27.5235 25.0988 27.3532 25.3416C27.2125 25.5491 27.0219 25.6964 26.7849 25.7839C26.5475 25.8688 26.2082 25.9117 25.7661 25.9117H23.9796ZM19.2295 23.8102C18.7533 23.8102 18.3586 23.9447 18.0432 24.214C17.6673 24.5335 17.4775 24.9517 17.4775 25.4665C17.4775 25.9815 17.6673 26.3973 18.0432 26.7123C18.3586 26.9817 18.7562 27.1168 19.2351 27.1168C19.7111 27.1168 20.1065 26.9817 20.4219 26.7123C20.6099 26.5542 20.7534 26.3596 20.8524 26.1275C20.9414 25.9191 20.9869 25.7066 20.9869 25.4878C20.9869 24.9488 20.7979 24.5255 20.4219 24.214C20.1016 23.9487 19.7038 23.8146 19.2295 23.8102ZM19.2222 23.0094C20.0499 23.0094 20.7039 23.2327 21.1844 23.6784C21.6915 24.1464 21.9457 24.7525 21.9457 25.4953C21.9457 25.9499 21.8245 26.374 21.5799 26.7681C21.1037 27.5395 20.3212 27.9243 19.2295 27.9243C18.4103 27.9243 17.7613 27.7005 17.2807 27.2553C17.0265 27.0143 16.8308 26.7267 16.695 26.3929C16.5766 26.1002 16.5194 25.7913 16.5194 25.4665C16.5194 24.9889 16.6405 24.5525 16.8853 24.1584C17.3419 23.4062 18.1216 23.0236 19.2222 23.0094ZM14.4915 25.7651H11.5985V27.8398H10.6602V23.0925H11.5985V24.986H14.4915V23.0925H15.4316V27.8398H14.4915V25.7651ZM9.4672 23.7196L9.05178 24.4716C8.59512 24.0632 8.0135 23.8421 7.30886 23.8102C7.05469 23.8102 6.82831 23.8399 6.63025 23.9001C6.48015 23.9464 6.35837 24.0169 6.26651 24.1097C6.17536 24.2025 6.12916 24.3044 6.12916 24.4161C6.12916 24.5913 6.252 24.7129 6.49679 24.7776C6.60865 24.8103 6.85433 24.8451 7.23098 24.8814L7.78765 24.9373C8.11191 24.974 8.37494 25.0239 8.57512 25.0833C8.77478 25.144 8.95054 25.2272 9.10134 25.3336C9.2564 25.4506 9.37711 25.6012 9.46508 25.7868C9.55128 25.9724 9.59464 26.1694 9.59464 26.3785C9.59464 26.7123 9.49163 27.0091 9.28419 27.2692C9.09126 27.5058 8.79266 27.6828 8.38821 27.7995C8.08235 27.8826 7.75544 27.9243 7.40781 27.9243C6.77592 27.9243 6.03517 27.7005 5.18362 27.2553L5.5001 26.4472C5.68471 26.6007 5.97889 26.7502 6.38333 26.8969C6.78813 27.043 7.13682 27.1168 7.42781 27.1168C7.75313 27.1168 8.02784 27.0652 8.25422 26.9628C8.38556 26.9026 8.49176 26.8253 8.57123 26.7302C8.65194 26.6352 8.69141 26.5342 8.69141 26.4277C8.69141 26.2691 8.593 26.1574 8.39494 26.0938C8.27263 26.0469 8.02518 26.0034 7.65419 25.9603L7.11027 25.9042C6.74813 25.8675 6.49396 25.8333 6.34882 25.801C6.20261 25.7678 6.05588 25.7141 5.91003 25.6408C5.70259 25.5343 5.54134 25.3761 5.42346 25.1665C5.31991 24.9814 5.2677 24.7649 5.2677 24.5193C5.2677 24.1212 5.40169 23.7889 5.67037 23.5249C6.02349 23.1817 6.55909 23.0094 7.27984 23.0094C7.58569 23.0094 7.91226 23.0535 8.26148 23.1412C8.60964 23.2305 9.01231 23.4223 9.4672 23.7196Z" fill="#333333"/>
<path d="M30.5712 9.15445V9.15336C30.5707 8.76271 30.416 8.40815 30.1657 8.15203C29.9159 7.89482 29.5701 7.7344 29.1908 7.7344H29.189H29.1885C28.8076 7.7344 28.4628 7.89427 28.213 8.15039C27.9633 8.40742 27.807 8.76271 27.807 9.15263V9.15445C27.807 12.0498 27.7976 14.9178 27.7976 17.8098V17.8115C27.7976 18.288 27.6068 18.7222 27.3009 19.0367C26.9933 19.3529 26.5701 19.5489 26.1057 19.5489H26.1046H26.1035C25.6391 19.5489 25.2164 19.3535 24.9106 19.039C24.6029 18.7228 24.4118 18.288 24.4118 17.8104V17.8098V11.5046V11.504C24.4118 11.2869 24.3261 11.0898 24.187 10.9484H24.1859C24.0468 10.8058 23.8556 10.7171 23.6464 10.7171H23.6448H23.6441C23.434 10.7171 23.2421 10.8058 23.103 10.9489L23.102 10.9478C22.9639 11.0904 22.8784 11.2874 22.8779 11.5029V11.5046V15.2873V15.2889C22.8772 15.7667 22.6871 16.2015 22.3812 16.5159L22.38 16.5147C22.0731 16.8297 21.6499 17.0262 21.1854 17.0262H21.1849H21.1836C20.7194 17.0256 20.2967 16.8304 19.9914 16.5165H19.9891C19.6827 16.2015 19.4919 15.7667 19.4919 15.2878V15.2873V13.392V13.3907C19.4919 13.3477 19.4747 13.3089 19.4469 13.2803C19.4207 13.2533 19.383 13.2361 19.3412 13.2361H19.34H19.3389C19.2972 13.2361 19.2588 13.2538 19.2311 13.2819C19.205 13.3094 19.1881 13.3477 19.1881 13.3907V13.392V14.0236H18.2617V13.392V13.3907C18.2622 13.0878 18.384 12.8105 18.5798 12.6089C18.775 12.4096 19.0432 12.2853 19.3389 12.2848H19.34H19.3412C19.6365 12.2848 19.9062 12.4107 20.102 12.6118C20.2962 12.8116 20.4174 13.0872 20.4179 13.3907V13.392V15.2873V15.2878C20.4179 15.5039 20.5047 15.7009 20.6438 15.8435L20.6425 15.8446C20.7817 15.9866 20.9728 16.0748 21.1836 16.0748H21.1849H21.1854C21.3967 16.0748 21.5886 15.9871 21.7265 15.8451V15.8435C21.8656 15.7002 21.9513 15.5039 21.9518 15.2889V15.2873V11.5046V11.5029C21.9523 11.0264 22.1424 10.5927 22.449 10.2777V10.2759C22.7543 9.96091 23.1781 9.76513 23.6441 9.76513H23.6448H23.6464C24.1114 9.76568 24.5346 9.96091 24.8405 10.2754L24.8394 10.2765C25.1468 10.5922 25.3377 11.0268 25.3377 11.504V11.5046V17.8098V17.8104C25.3377 18.0275 25.4239 18.2246 25.5619 18.366C25.7009 18.5091 25.8927 18.5973 26.1035 18.5973H26.1046H26.1057C26.3165 18.5973 26.5078 18.5097 26.6457 18.3678C26.7848 18.2251 26.8715 18.0281 26.8715 17.8115V17.8098C26.8715 14.9178 26.8811 12.0498 26.8811 9.15445V9.15263C26.8811 8.50258 27.1408 7.91086 27.5585 7.48138C27.9773 7.05117 28.5545 6.78302 29.1885 6.78302H29.189H29.1908C29.8235 6.78375 30.3993 7.05008 30.817 7.47901C31.2364 7.90977 31.4971 8.50258 31.4971 9.15336V9.15445V15.2873V15.2889C31.4971 15.5055 31.5833 15.7026 31.7224 15.8451C31.8603 15.9871 32.0522 16.0748 32.263 16.0748H32.264H32.2658C32.4761 16.0748 32.6679 15.986 32.8069 15.8435C32.9455 15.7018 33.031 15.5049 33.031 15.2878V15.2873V12.7688V12.7682C33.031 12.291 33.2225 11.8562 33.5287 11.5407L33.5278 11.5396C33.8342 11.2251 34.2569 11.0297 34.7224 11.0291H34.7234H34.7245C35.1905 11.0291 35.6132 11.2251 35.9203 11.5401V11.5417C36.2256 11.8569 36.4163 12.2904 36.417 12.7675V12.7688V15.2873V15.2889C36.417 15.5039 36.5032 15.7002 36.6421 15.8435V15.8451C36.7802 15.9871 36.9721 16.0748 37.1829 16.0748H37.1839H37.1855C37.3953 16.0748 37.5866 15.9866 37.7255 15.8446L37.7245 15.8435C37.8636 15.7009 37.9502 15.5039 37.9502 15.2878V15.2873V14.0282H38.8767V15.2873V15.2878C38.8767 15.7667 38.6861 16.202 38.379 16.5165H38.3774C38.071 16.8304 37.6494 17.0256 37.1855 17.0262H37.1839H37.1829C36.7189 17.0262 36.2957 16.8297 35.9881 16.5147L35.987 16.5159C35.6812 16.2015 35.4914 15.7667 35.4909 15.2889V15.2873V12.7688V12.7675C35.4904 12.5511 35.4042 12.3546 35.2656 12.2118L35.2652 12.2126C35.1261 12.07 34.9348 11.9811 34.7245 11.9811H34.7234H34.7224C34.5132 11.9811 34.3218 12.07 34.1824 12.2126H34.1813C34.0427 12.354 33.957 12.5511 33.957 12.7682V12.7688V15.2873V15.2878C33.957 15.7656 33.7652 16.2002 33.4575 16.5165C33.1517 16.8304 32.7295 17.0256 32.2658 17.0262H32.264H32.263C31.798 17.0262 31.3748 16.8297 31.0679 16.5143C30.762 16.1997 30.5712 15.7656 30.5712 15.2889V15.2873V9.15445Z" fill="#333333"/>
</g>
</svg>
