<svg width="82" height="50" viewBox="0 0 82 50" fill="none" xmlns="http://www.w3.org/2000/svg">
<path d="M49.1996 9.21353C49.1934 7.76943 48.6167 6.38654 47.5956 5.36654C46.5748 4.34657 45.1925 3.7723 43.7501 3.76901H43.7428C42.3006 3.77035 40.917 4.34356 39.8954 5.36327C38.874 6.38297 38.297 7.76624 38.2909 9.21063V9.21649C38.2909 20.328 38.2539 31.3322 38.2539 42.4312V42.4371C38.2431 44.206 37.5354 45.8989 36.2842 47.1477C35.0336 48.3964 33.3408 49.0998 31.5742 49.1055H31.5664C29.7996 49.0991 28.1071 48.3946 26.8569 47.1451C25.6063 45.8959 24.8994 44.2023 24.8895 42.4334V18.229C24.8903 17.8326 24.8123 17.4396 24.6607 17.0734C24.5091 16.7072 24.2863 16.3745 24.0055 16.0947H23.998C23.4341 15.5277 22.6679 15.208 21.8684 15.2058H21.8606C21.0593 15.2077 20.2917 15.528 19.7259 16.0962L19.7226 16.0925C19.1572 16.6568 18.8385 17.4233 18.8371 18.2226V32.7506C18.8363 33.6264 18.6626 34.4937 18.3259 35.3021C17.9892 36.1106 17.4964 36.8444 16.8757 37.4613C15.6262 38.7158 13.9302 39.4222 12.161 39.4255H12.152C10.3843 39.4217 8.69027 38.7154 7.44229 37.4613H7.43507C6.8139 36.8441 6.32082 36.1103 5.98421 35.301C5.64744 34.4921 5.47373 33.6246 5.47294 32.7482V25.4691C5.47294 25.3909 5.45773 25.3135 5.42732 25.241C5.39737 25.1688 5.35316 25.1032 5.29782 25.0481C5.24231 24.993 5.17647 24.9498 5.10419 24.92C5.0316 24.8905 4.954 24.8757 4.87608 24.8763H4.86792C4.78922 24.8763 4.71145 24.8921 4.63871 24.9225C4.56612 24.9531 4.50027 24.9974 4.44477 25.0533C4.39005 25.1085 4.34709 25.1736 4.31746 25.2456C4.2883 25.3175 4.27325 25.3943 4.27372 25.472V27.8989H0.618656V25.472C0.625868 24.3466 1.0763 23.2693 1.87166 22.4743C2.66733 21.6792 3.7438 21.2307 4.86792 21.2257H4.87608C5.99989 21.2299 7.07682 21.6777 7.87328 22.4724C8.66926 23.2666 9.12017 24.3436 9.12832 25.4691V32.7506C9.12942 33.147 9.20891 33.5397 9.36161 33.905C9.51448 34.271 9.73789 34.6028 10.0192 34.8823V34.8861C10.5853 35.4515 11.3521 35.7697 12.152 35.7705H12.161C12.5568 35.7708 12.9493 35.6932 13.3153 35.5417C13.6816 35.3905 14.0141 35.1681 14.2946 34.8879V34.88C14.5754 34.6017 14.7987 34.2705 14.9511 33.9055C15.1038 33.5408 15.1828 33.1492 15.1839 32.7535V18.2256C15.1858 17.3513 15.3599 16.4862 15.6966 15.6797C16.0327 14.8731 16.5248 14.1407 17.1444 13.5248V13.5173C17.7639 12.8963 18.4997 12.4038 19.3091 12.0675C20.1191 11.7313 20.987 11.5582 21.8636 11.5581H21.8716C23.6401 11.5593 25.3355 12.2638 26.5857 13.5159H26.5821C27.2033 14.1329 27.6963 14.8667 28.0342 15.6748C28.3715 16.4833 28.5459 17.3502 28.5483 18.2264V42.4274C28.5502 43.2289 28.8692 43.9967 29.4354 44.5629C30.0018 45.1291 30.7691 45.4474 31.5693 45.4481H31.5772C32.3774 45.4481 33.145 45.1307 33.7119 44.5651C34.2784 43.9997 34.5985 43.2326 34.6015 42.4312V42.4256C34.6015 31.3263 34.639 20.3219 34.639 9.21063V9.20479C34.6525 6.79295 35.617 4.48416 37.3231 2.78121C39.0286 1.07825 41.337 0.119087 43.7458 0.11261H43.753C46.1615 0.121209 48.4687 1.08214 50.173 2.78609C51.877 4.49008 52.8401 6.79914 52.8521 9.21063V32.7535C52.855 33.5545 53.1749 34.3216 53.7413 34.8872C54.3079 35.4526 55.0751 35.77 55.875 35.7705H55.8847C56.686 35.7693 57.4541 35.4496 58.0205 34.8823C58.3013 34.6028 58.5241 34.271 58.6759 33.905C58.8278 33.5392 58.9057 33.147 58.9054 32.7506V23.08C58.9076 22.2041 59.0824 21.3371 59.4198 20.5292C59.7572 19.7211 60.2508 18.9875 60.8716 18.3706H60.8682C62.1177 17.1181 63.8132 16.414 65.5814 16.4124H65.5911C67.3611 16.4137 69.0585 17.1185 70.3102 18.372V18.3795C70.9292 18.9957 71.4209 19.7281 71.7575 20.5346C72.0938 21.3417 72.2683 22.2068 72.2705 23.0807V32.7573C72.2712 33.1529 72.3503 33.5445 72.5027 33.9092C72.6554 34.2743 72.8782 34.6055 73.159 34.8837V34.8915C73.7256 35.4574 74.4929 35.7749 75.2929 35.7741H75.3023C76.1022 35.7727 76.8694 35.4545 77.4363 34.8893L77.4319 34.8861C77.713 34.6065 77.9366 34.2746 78.0893 33.9088C78.2425 33.5434 78.3215 33.1507 78.3226 32.7543V27.915H81.9828V32.7506C81.9817 33.6267 81.8072 34.4945 81.4698 35.3029C81.1324 36.1114 80.6386 36.8449 80.0166 37.4613H80.0091C78.7619 38.7129 77.0694 39.4169 75.3039 39.4195H75.2945C73.5257 39.4177 71.8298 38.7135 70.5786 37.4613H70.5753C69.9556 36.8444 69.4636 36.1109 69.1273 35.3029C68.7911 34.4953 68.6173 33.6286 68.6162 32.7535V23.0773C68.6143 22.2771 68.2957 21.5104 67.7299 20.9456L67.7261 20.9493C67.1608 20.3815 66.3932 20.0616 65.5922 20.0597H65.5829C64.7833 20.0619 64.0176 20.3815 63.4534 20.9485H63.4477C63.1669 21.2276 62.9438 21.5595 62.792 21.9254C62.6401 22.2917 62.5622 22.684 62.563 23.08V32.7506C62.5528 34.519 61.8459 36.2123 60.5955 37.4618C59.3453 38.711 57.6529 39.4155 55.8869 39.4217H55.8772C54.1113 39.4158 52.4192 38.7121 51.1685 37.4632C49.9182 36.2145 49.2106 34.522 49.1996 32.7535V9.21353Z" fill="#333333"/>
</svg>
