<svg width="32" height="32" viewBox="0 0 32 32" fill="none" xmlns="http://www.w3.org/2000/svg">
    <rect width="32" height="32" rx="2.66667" fill="white" />
    <path fill-rule="evenodd" clip-rule="evenodd"
        d="M27.6899 19.7543L27.226 20.0988V21.0614H26.6753V18.2671H27.226V19.4592L28.7214 18.2671H29.4513L28.0925 19.3979L29.4513 21.0614H28.776L27.6899 19.7543ZM23.4809 19.148V21.0614H22.9795V18.2671H23.477L25.337 20.1396V18.2671H25.8384V21.0614H25.3905L23.4809 19.148ZM22.2007 20.0496C22.2007 20.3446 22.1481 20.5655 22.043 20.7131C21.85 20.9781 21.447 21.1113 20.8333 21.1113C20.3886 21.1113 20.0504 21.0398 19.8187 20.8979C19.6858 20.8132 19.5944 20.6999 19.5452 20.5581C19.4929 20.4158 19.4664 20.2461 19.4664 20.0496V18.2671H20.0171V19.8774C20.0171 20.0385 20.0269 20.1572 20.0462 20.234C20.0655 20.3105 20.1014 20.3746 20.1539 20.4262C20.2953 20.5655 20.53 20.6355 20.8587 20.6355C21.1867 20.6355 21.4215 20.5655 21.5628 20.4262C21.6154 20.3746 21.6513 20.3105 21.6705 20.234C21.6894 20.1572 21.6992 20.0385 21.6992 19.8774V18.2671H22.2007V20.0496ZM16.5165 20.6026H17.3248C17.5784 20.6026 17.771 20.5685 17.9006 20.5C18.1768 20.3577 18.3144 20.0796 18.3144 19.6646C18.3144 19.3635 18.2407 19.1326 18.0915 18.9721C18.0079 18.8847 17.9074 18.8216 17.7886 18.7829C17.6701 18.7448 17.5151 18.7256 17.3248 18.7256H16.5165V20.6026ZM15.9658 18.2671H17.3786C17.7178 18.2671 17.9789 18.3055 18.1614 18.3817C18.4186 18.4967 18.6089 18.6837 18.7336 18.9434C18.8299 19.148 18.8782 19.3881 18.8782 19.6646C18.8782 20.1447 18.7336 20.5125 18.4434 20.7663C18.3191 20.8726 18.1751 20.9487 18.0102 20.9936C17.8461 21.0391 17.6352 21.0614 17.3786 21.0614H15.9658V18.2671Z"
        fill="#1D1D1F" />
    <path fill-rule="evenodd" clip-rule="evenodd"
        d="M13.0321 19.4673H14.0098C14.203 19.4673 14.3401 19.447 14.4198 19.4059C14.4749 19.3812 14.5186 19.3401 14.5506 19.2828C14.5817 19.2255 14.598 19.1624 14.598 19.0946C14.598 19.029 14.5817 18.9673 14.5506 18.91C14.5186 18.8529 14.4749 18.8115 14.4198 18.7869C14.3401 18.7457 14.203 18.7255 14.0098 18.7255H13.0321V19.4673ZM13.0321 19.9261V21.061H12.4811V18.2667H14.0806C14.285 18.2667 14.4453 18.2808 14.5628 18.3078C14.6803 18.3351 14.7834 18.3813 14.8715 18.447C14.963 18.5178 15.0344 18.6095 15.0867 18.7214C15.1367 18.8388 15.1614 18.9632 15.1614 19.0946C15.1614 19.2828 15.1121 19.4477 15.0122 19.5906C14.9296 19.7127 14.8177 19.7994 14.6786 19.8509C14.5393 19.9009 14.3401 19.9261 14.0806 19.9261H13.0321ZM10.244 18.6891C9.96458 18.6891 9.73291 18.7683 9.54778 18.9268C9.32712 19.1149 9.21576 19.3611 9.21576 19.6641C9.21576 19.9672 9.32712 20.212 9.54778 20.3974C9.73291 20.556 9.96625 20.6355 10.2474 20.6355C10.5267 20.6355 10.7588 20.556 10.9439 20.3974C11.0543 20.3043 11.1385 20.1897 11.1966 20.0532C11.2488 19.9305 11.2755 19.8054 11.2755 19.6766C11.2755 19.3593 11.1646 19.1102 10.9439 18.9268C10.7559 18.7707 10.5225 18.6917 10.244 18.6891ZM10.2398 18.2178C10.7256 18.2178 11.1094 18.3492 11.3915 18.6116C11.6891 18.887 11.8383 19.2438 11.8383 19.681C11.8383 19.9486 11.7671 20.1982 11.6236 20.4302C11.3441 20.8843 10.8848 21.1108 10.244 21.1108C9.76325 21.1108 9.38229 20.979 9.10023 20.717C8.95105 20.5752 8.83615 20.4058 8.75647 20.2094C8.68697 20.0371 8.65341 19.8553 8.65341 19.6641C8.65341 19.3829 8.72447 19.1261 8.86815 18.8941C9.13618 18.4514 9.59381 18.2261 10.2398 18.2178ZM7.46316 19.8398H5.76511V21.061H5.2144V18.2667H5.76511V19.3812H7.46316V18.2667H8.01491V21.061H7.46316V19.8398ZM4.5142 18.6358L4.27037 19.0784C4.00234 18.8381 3.66096 18.7079 3.24738 18.6891C3.0982 18.6891 2.96533 18.7066 2.84908 18.742C2.76098 18.7693 2.68951 18.8108 2.63559 18.8654C2.58208 18.9201 2.55497 18.98 2.55497 19.0458C2.55497 19.1489 2.62707 19.2205 2.77075 19.2586C2.8364 19.2778 2.9806 19.2983 3.20167 19.3196L3.5284 19.3526C3.71872 19.3742 3.8731 19.4036 3.9906 19.4385C4.10779 19.4743 4.21095 19.5232 4.29946 19.5859C4.39047 19.6547 4.46132 19.7434 4.51295 19.8526C4.56354 19.9618 4.589 20.0778 4.589 20.2009C4.589 20.3974 4.52853 20.5721 4.40678 20.7252C4.29354 20.8645 4.11828 20.9686 3.88089 21.0373C3.70138 21.0862 3.50949 21.1108 3.30546 21.1108C2.93458 21.1108 2.49981 20.979 2 20.717L2.18575 20.2414C2.29411 20.3317 2.46677 20.4197 2.70415 20.5061C2.94175 20.592 3.1464 20.6355 3.3172 20.6355C3.50814 20.6355 3.66938 20.6051 3.80225 20.5448C3.87934 20.5094 3.94167 20.4639 3.98831 20.4079C4.03569 20.352 4.05885 20.2925 4.05885 20.2299C4.05885 20.1365 4.00109 20.0707 3.88484 20.0333C3.81306 20.0057 3.66782 19.9801 3.45007 19.9548L3.13082 19.9217C2.91827 19.9001 2.76908 19.88 2.6839 19.861C2.59808 19.8414 2.51196 19.8098 2.42636 19.7667C2.3046 19.704 2.20996 19.6109 2.14077 19.4875C2.07999 19.3786 2.04935 19.2511 2.04935 19.1065C2.04935 18.8722 2.12799 18.6766 2.28569 18.5212C2.49295 18.3192 2.80731 18.2178 3.23035 18.2178C3.40987 18.2178 3.60154 18.2437 3.80651 18.2954C4.01086 18.3479 4.2472 18.4608 4.5142 18.6358Z"
        fill="#1D1D1F" />
    <path
        d="M16.9007 10.0624V10.0617C16.9004 9.83179 16.8096 9.62309 16.6627 9.47233C16.5161 9.32093 16.3131 9.22651 16.0905 9.22651H16.0894H16.0891C15.8655 9.22651 15.6632 9.32061 15.5166 9.47137C15.37 9.62266 15.2783 9.83179 15.2783 10.0613V10.0624C15.2783 11.7666 15.2728 13.4548 15.2728 15.1571V15.1581C15.2728 15.4386 15.1608 15.6942 14.9812 15.8793C14.8007 16.0654 14.5523 16.1808 14.2797 16.1808H14.2791H14.2784C14.0058 16.1808 13.7578 16.0657 13.5782 15.8807C13.3977 15.6945 13.2855 15.4386 13.2855 15.1574V15.1571V11.4457V11.4454C13.2855 11.3176 13.2352 11.2016 13.1535 11.1183H13.1529C13.0713 11.0344 12.9591 10.9822 12.8363 10.9822H12.8353H12.8349C12.7116 10.9822 12.599 11.0344 12.5173 11.1186L12.5167 11.118C12.4357 11.2019 12.3855 11.3179 12.3852 11.4447V11.4457V13.6723V13.6733C12.3848 13.9545 12.2732 14.2104 12.0937 14.3955L12.0929 14.3948C11.9128 14.5802 11.6644 14.6958 11.3918 14.6958H11.3915H11.3908C11.1183 14.6955 10.8702 14.5806 10.691 14.3958H10.6896C10.5098 14.2104 10.3978 13.9545 10.3978 13.6726V13.6723V12.5567V12.5559C10.3978 12.5306 10.3877 12.5078 10.3714 12.4909C10.356 12.475 10.3339 12.4649 10.3094 12.4649H10.3087H10.308C10.2835 12.4649 10.261 12.4754 10.2448 12.4919C10.2294 12.5081 10.2195 12.5306 10.2195 12.5559V12.5567V12.9285H9.67578V12.5567V12.5559C9.67609 12.3776 9.74757 12.2144 9.86247 12.0957C9.97706 11.9784 10.1344 11.9053 10.308 11.9049H10.3087H10.3094C10.4827 11.9049 10.641 11.9791 10.7559 12.0974C10.8699 12.215 10.941 12.3773 10.9413 12.5559V12.5567V13.6723V13.6726C10.9413 13.7998 10.9923 13.9158 11.0739 13.9997L11.0732 14.0003C11.1548 14.0839 11.267 14.1358 11.3908 14.1358H11.3915H11.3918C11.5158 14.1358 11.6285 14.0842 11.7094 14.0006V13.9997C11.791 13.9153 11.8413 13.7998 11.8416 13.6733V13.6723V11.4457V11.4447C11.842 11.1642 11.9535 10.909 12.1335 10.7236V10.7225C12.3127 10.5371 12.5614 10.4218 12.8349 10.4218H12.8353H12.8363C13.1092 10.4222 13.3576 10.5371 13.5371 10.7222L13.5365 10.7228C13.7169 10.9087 13.8289 11.1645 13.8289 11.4454V11.4457V15.1571V15.1574C13.8289 15.2852 13.8795 15.4012 13.9605 15.4845C14.0421 15.5687 14.1547 15.6207 14.2784 15.6207H14.2791H14.2797C14.4034 15.6207 14.5157 15.5691 14.5967 15.4856C14.6783 15.4016 14.7292 15.2856 14.7292 15.1581V15.1571C14.7292 13.4548 14.7348 11.7666 14.7348 10.0624V10.0613C14.7348 9.67867 14.8872 9.33037 15.1324 9.07757C15.3782 8.82434 15.717 8.6665 16.0891 8.6665H16.0894H16.0905C16.4619 8.66693 16.7998 8.8237 17.045 9.07618C17.2911 9.32973 17.4441 9.67867 17.4441 10.0617V10.0624V13.6723V13.6733C17.4441 13.8007 17.4947 13.9167 17.5764 14.0006C17.6573 14.0842 17.7699 14.1358 17.8936 14.1358H17.8943H17.8953C18.0187 14.1358 18.1313 14.0836 18.2129 13.9997C18.2942 13.9163 18.3444 13.8004 18.3444 13.6726V13.6723V12.1898V12.1895C18.3444 11.9086 18.4568 11.6527 18.6365 11.4669L18.636 11.4663C18.8159 11.2812 19.0639 11.1662 19.3372 11.1659H19.3378H19.3384C19.612 11.1659 19.86 11.2812 20.0403 11.4666V11.4676C20.2195 11.6531 20.3314 11.9083 20.3318 12.1891V12.1898V13.6723V13.6733C20.3318 13.7998 20.3824 13.9153 20.4639 13.9997V14.0006C20.545 14.0842 20.6576 14.1358 20.7813 14.1358H20.7819H20.7829C20.906 14.1358 21.0183 14.0839 21.0998 14.0003L21.0992 13.9997C21.1809 13.9158 21.2317 13.7998 21.2317 13.6726V13.6723V12.9312H21.7755V13.6723V13.6726C21.7755 13.9545 21.6636 14.2107 21.4834 14.3958H21.4825C21.3026 14.5806 21.0552 14.6955 20.7829 14.6958H20.7819H20.7813C20.509 14.6958 20.2606 14.5802 20.0801 14.3948L20.0795 14.3955C19.8999 14.2104 19.7886 13.9545 19.7883 13.6733V13.6723V12.1898V12.1891C19.7879 12.0617 19.7373 11.946 19.656 11.862L19.6558 11.8625C19.5741 11.7785 19.4618 11.7262 19.3384 11.7262H19.3378H19.3372C19.2144 11.7262 19.1021 11.7785 19.0202 11.8625H19.0196C18.9382 11.9457 18.888 12.0617 18.888 12.1895V12.1898V13.6723V13.6726C18.888 13.9539 18.7753 14.2097 18.5948 14.3958C18.4153 14.5806 18.1675 14.6955 17.8953 14.6958H17.8943H17.8936C17.6207 14.6958 17.3723 14.5802 17.1922 14.3945C17.0127 14.2093 16.9007 13.9539 16.9007 13.6733V13.6723V10.0624Z"
        fill="#1D1D1F" />
</svg>
