<svg width="27" height="24" viewBox="0 0 27 24" fill="none" xmlns="http://www.w3.org/2000/svg">
<path d="M6.39637 1.09094H18.5164C22.4 1.09094 23.3709 2.11227 23.3709 6.18613V13.4502C23.3709 17.5355 22.4 18.5454 18.5273 18.5454H6.39637C2.52364 18.5569 1.55273 17.5355 1.55273 13.4617V6.18613C1.55273 2.11227 2.52364 1.09094 6.39637 1.09094Z" stroke="#0066CC" stroke-width="1.8" stroke-linecap="round" stroke-linejoin="round"/>
<path d="M1.55273 14.1818H23.3709" stroke="#0066CC" stroke-width="1.8" stroke-linecap="round" stroke-linejoin="round"/>
<path d="M11.371 18.5454L11.371 22.909" stroke="#0066CC" stroke-width="1.8" stroke-linecap="round" stroke-linejoin="round"/>
<path d="M5.91638 22.9091H17.9164" stroke="#0066CC" stroke-width="1.8" stroke-linecap="round" stroke-linejoin="round"/>
<path d="M25.5527 13.091V19.6364C25.5527 22.2546 25.0755 22.9091 23.1664 22.9091H20.3027C18.3937 22.9091 17.9164 22.2546 17.9164 19.6364V13.091C17.9164 10.4728 18.3937 9.81824 20.3027 9.81824H23.1664C25.0755 9.81824 25.5527 10.4728 25.5527 13.091Z" fill="#FAFAFA" fill-opacity="0.97" stroke="#0066CC" stroke-width="1.8" stroke-linecap="round" stroke-linejoin="round"/>
<path d="M22.2801 12H21.1891" stroke="#0066CC" stroke-width="1.8" stroke-linecap="round" stroke-linejoin="round"/>
</svg>
