<svg width="27" height="24" viewBox="0 0 27 24" fill="none" xmlns="http://www.w3.org/2000/svg">
<path d="M6.39637 1.09082H18.5164C22.4 1.09082 23.3709 2.11215 23.3709 6.18601V13.4501C23.3709 17.5354 22.4 18.5453 18.5273 18.5453H6.39637C2.52364 18.5567 1.55273 17.5354 1.55273 13.4616V6.18601C1.55273 2.11215 2.52364 1.09082 6.39637 1.09082Z" stroke="#86868B" stroke-width="1.8" stroke-linecap="round" stroke-linejoin="round"/>
<path d="M1.55273 14.1819H23.3709" stroke="#86868B" stroke-width="1.8" stroke-linecap="round" stroke-linejoin="round"/>
<path d="M11.371 18.5454L11.371 22.909" stroke="#86868B" stroke-width="1.8" stroke-linecap="round" stroke-linejoin="round"/>
<path d="M5.91638 22.9092H17.9164" stroke="#86868B" stroke-width="1.8" stroke-linecap="round" stroke-linejoin="round"/>
<path d="M25.5527 13.0908V19.6363C25.5527 22.2545 25.0755 22.909 23.1664 22.909H20.3027C18.3937 22.909 17.9164 22.2545 17.9164 19.6363V13.0908C17.9164 10.4727 18.3937 9.81812 20.3027 9.81812H23.1664C25.0755 9.81812 25.5527 10.4727 25.5527 13.0908Z" fill="#FAFAFA" fill-opacity="0.97" stroke="#86868B" stroke-width="1.8" stroke-linecap="round" stroke-linejoin="round"/>
<path d="M22.2801 12H21.1891" stroke="#86868B" stroke-width="1.8" stroke-linecap="round" stroke-linejoin="round"/>
</svg>
