<svg width="27" height="24" viewBox="0 0 27 24" fill="none" xmlns="http://www.w3.org/2000/svg">
<path d="M5.98817 1.09082H18.1082C21.9918 1.09082 22.9627 2.11215 22.9627 6.18601V13.4501C22.9627 17.5354 21.9918 18.5453 18.1191 18.5453H5.98817C2.11544 18.5567 1.14453 17.5354 1.14453 13.4616V6.18601C1.14453 2.11215 2.11544 1.09082 5.98817 1.09082Z" stroke="white" stroke-width="1.8" stroke-linecap="round" stroke-linejoin="round"/>
<path d="M1.14453 14.1816H22.9627" stroke="white" stroke-width="1.8" stroke-linecap="round" stroke-linejoin="round"/>
<path d="M10.9609 18.5459L10.9609 22.9095" stroke="white" stroke-width="1.8" stroke-linecap="round" stroke-linejoin="round"/>
<path d="M5.50781 22.9092H17.5078" stroke="white" stroke-width="1.8" stroke-linecap="round" stroke-linejoin="round"/>
<path d="M25.1442 13.0911V19.6365C25.1442 22.2547 24.6669 22.9093 22.7578 22.9093H19.8942C17.9851 22.9093 17.5078 22.2547 17.5078 19.6365V13.0911C17.5078 10.4729 17.9851 9.81836 19.8942 9.81836H22.7578C24.6669 9.81836 25.1442 10.4729 25.1442 13.0911Z" fill="white" stroke="white" stroke-width="1.8" stroke-linecap="round" stroke-linejoin="round"/>
<path d="M21.8702 12H20.7793" stroke="white" stroke-width="1.8" stroke-linecap="round" stroke-linejoin="round"/>
</svg>
