<svg width="64" height="64" viewBox="0 0 64 64" fill="none" xmlns="http://www.w3.org/2000/svg">
    <path
        d="M32.0165 64C36.3863 64 40.5037 63.1546 44.3685 61.4637C48.2333 59.7948 51.637 57.4891 54.5795 54.5466C57.522 51.604 59.8278 48.2114 61.4967 44.3685C63.1656 40.5037 64 36.3754 64 31.9835C64 27.6137 63.1546 23.4963 61.4637 19.6315C59.7948 15.7667 57.4891 12.363 54.5466 9.42048C51.604 6.47796 48.2004 4.17224 44.3356 2.50335C40.4708 0.834448 36.3534 0 31.9835 0C27.6137 0 23.4963 0.834448 19.6315 2.50335C15.7886 4.17224 12.385 6.47796 9.42048 9.42048C6.47796 12.363 4.17224 15.7667 2.50335 19.6315C0.834448 23.4963 0 27.6137 0 31.9835C0 36.3754 0.834448 40.5037 2.50335 44.3685C4.1942 48.2114 6.51089 51.604 9.45342 54.5466C12.396 57.4891 15.7886 59.7948 19.6315 61.4637C23.4963 63.1546 27.6246 64 32.0165 64ZM28.5579 47.3001C27.965 47.3001 27.438 47.1683 26.9768 46.9048C26.5157 46.6413 26.0765 46.246 25.6593 45.719L17.9516 36.2656C17.4026 35.5848 17.1282 34.8821 17.1282 34.1575C17.1282 33.3889 17.3807 32.7411 17.8857 32.2141C18.4128 31.6651 19.0606 31.3906 19.8291 31.3906C20.2903 31.3906 20.7075 31.4895 21.0808 31.6871C21.4761 31.8847 21.8604 32.2361 22.2337 32.7411L28.4261 40.6464L41.5028 19.6644C42.1396 18.6324 42.9302 18.1163 43.8744 18.1163C44.5991 18.1163 45.2469 18.3579 45.8178 18.841C46.4107 19.3021 46.7072 19.917 46.7072 20.6855C46.7072 21.0369 46.6193 21.3992 46.4436 21.7725C46.2899 22.1239 46.1033 22.4642 45.8837 22.7936L31.2918 45.6861C30.5891 46.7621 29.6778 47.3001 28.5579 47.3001Z"
        fill="#339901" />
</svg>
