<svg width="89" height="20" viewBox="0 0 89 20" fill="none" xmlns="http://www.w3.org/2000/svg">
<path fill-rule="evenodd" clip-rule="evenodd" d="M74.1815 8.52442H80.756C81.6932 8.58513 82.6328 8.44873 83.5143 8.12317C83.8879 7.9607 84.1972 7.67869 84.3938 7.32113C84.6045 6.94704 84.7143 6.52425 84.7129 6.09459C84.7129 5.67212 84.6027 5.25744 84.3938 4.89053C84.198 4.5325 83.8884 4.25049 83.5143 4.08849C82.6332 3.76277 81.6932 3.62606 80.756 3.68724H74.1815V8.52286V8.52442ZM74.1815 11.5144V18.9133H70.4775V0.698218H81.2315C82.319 0.673247 83.4059 0.762671 84.4747 0.965716C85.2213 1.12444 85.9279 1.4333 86.5518 1.87373C87.1714 2.34302 87.6676 2.95668 87.9975 3.66117C88.3341 4.42778 88.5059 5.25744 88.501 6.09537C88.5231 7.25246 88.1716 8.38615 87.4983 9.32724C86.9497 10.1174 86.1634 10.7116 85.2539 11.0228C83.9478 11.4004 82.59 11.5667 81.2315 11.5152L74.1815 11.5144ZM55.4349 3.45033C53.739 3.38853 52.0772 3.93836 50.7524 5.00009C50.0347 5.5738 49.4598 6.30622 49.073 7.14041C48.6859 7.97413 48.4974 8.8865 48.5222 9.80559C48.4952 10.7217 48.6829 11.6314 49.0705 12.4614C49.4576 13.2918 50.0334 14.0199 50.7524 14.5872C52.111 15.5942 53.7565 16.1377 55.4468 16.1377C57.1376 16.1377 58.7831 15.5942 60.1417 14.5872C60.879 13.9867 61.4611 13.2174 61.8394 12.344C62.1861 11.5715 62.3678 10.7347 62.3719 9.88752C62.4097 8.9547 62.2276 8.02625 61.8401 7.17724C61.4527 6.32854 60.8707 5.58316 60.1417 5.00165C58.7974 3.9588 57.1352 3.41147 55.4349 3.45173V3.45033ZM55.4064 0.37781C58.6731 0.37781 61.2545 1.23322 63.1511 2.94436C64.7559 4.42529 65.7913 6.42281 66.0763 8.58966C66.3612 10.7564 65.8782 12.9544 64.7111 14.801C62.8328 17.7602 59.7411 19.2388 55.4349 19.237C52.2024 19.237 49.638 18.3812 47.7422 16.6701C46.7413 15.7477 45.9527 14.6181 45.4323 13.36C44.8692 11.9734 44.6437 10.4728 44.7743 8.98186C44.9048 7.49125 45.3877 6.05246 46.183 4.78549C47.9852 1.89979 51.0599 0.430405 55.4064 0.37781ZM36.7361 10.9519H25.3167V18.9117H21.6126V0.698218H25.3167V7.96367H36.7361V0.698218H40.4443V18.9141H36.7361V10.9541V10.9519ZM16.9052 3.10229L15.2659 5.98815C13.3352 4.37051 10.9041 3.47295 8.38673 3.44876C7.48237 3.43503 6.58078 3.55161 5.70963 3.79524C5.17272 3.941 4.67979 4.21631 4.2742 4.59743C4.10779 4.74522 3.97366 4.92626 3.88031 5.12868C3.78692 5.33095 3.73634 5.55039 3.73165 5.7731C3.73165 6.44825 4.21667 6.9127 5.18162 7.15867C6.13624 7.36171 7.10415 7.49578 8.07792 7.56023L10.2788 7.77404C11.3273 7.87471 12.3657 8.06246 13.3834 8.3348C14.1225 8.54222 14.8237 8.86715 15.4604 9.29665C16.0758 9.74753 16.5695 10.3447 16.8966 11.0346C17.2384 11.7418 17.4143 12.5181 17.4107 13.3039C17.4218 14.5537 16.9867 15.7663 16.1835 16.7235C15.2357 17.742 14.0029 18.4505 12.6463 18.7564C11.3824 19.0824 10.0815 19.2434 8.77634 19.2348C6.28519 19.2348 3.35975 18.379 0 16.6679L1.24971 13.5679C2.31105 14.3272 3.48812 14.9092 4.73521 15.2917C6.05338 15.7988 7.44617 16.0838 8.85719 16.1356C9.9731 16.1662 11.0833 15.9661 12.1184 15.5469C12.596 15.3454 13.0231 15.0398 13.3688 14.6528C13.6665 14.3387 13.8362 13.9245 13.8444 13.4911C13.8444 12.8854 13.4548 12.4566 12.6748 12.21C11.719 11.9448 10.7397 11.7741 9.75077 11.6996L7.60166 11.485C6.1757 11.3446 5.17436 11.2124 4.59756 11.0883C3.99842 10.953 3.41749 10.7467 2.86717 10.4736C2.05971 10.0712 1.39073 9.43633 0.946038 8.65068C0.525123 7.89141 0.31326 7.03413 0.332096 6.16623C0.313635 5.45378 0.445591 4.7457 0.71931 4.08802C0.993032 3.43051 1.40234 2.83823 1.92043 2.34973C3.31384 1.03283 5.43119 0.37375 8.27238 0.372345C9.57942 0.384987 10.8802 0.55479 12.1468 0.878163C13.8393 1.364 15.4451 2.11282 16.9052 3.09824V3.10229Z" fill="#333333"/>
</svg>
