<svg width="25" height="24" viewBox="0 0 25 24" fill="none" xmlns="http://www.w3.org/2000/svg">
<path d="M3.19141 11.2197V15.7097C3.19141 20.1997 4.99141 21.9997 9.48141 21.9997H14.8714C19.3614 21.9997 21.1614 20.1997 21.1614 15.7097V11.2197" stroke="white" stroke-width="1.5" stroke-linecap="round" stroke-linejoin="round"/>
<path d="M12.1821 12C14.0121 12 15.3621 10.51 15.1821 8.68L14.5221 2H9.85212L9.18212 8.68C9.00212 10.51 10.3521 12 12.1821 12Z" stroke="white" stroke-width="1.5" stroke-linecap="round" stroke-linejoin="round"/>
<path d="M18.4924 12C20.5124 12 21.9924 10.36 21.7924 8.35L21.5124 5.6C21.1524 3 20.1524 2 17.5324 2H14.4824L15.1824 9.01C15.3524 10.66 16.8424 12 18.4924 12Z" stroke="white" stroke-width="1.5" stroke-linecap="round" stroke-linejoin="round"/>
<path d="M5.82201 12C7.47201 12 8.96201 10.66 9.12201 9.01L9.34201 6.8L9.82201 2H6.77201C4.15201 2 3.15201 3 2.79201 5.6L2.52201 8.35C2.32201 10.36 3.80201 12 5.82201 12Z" stroke="white" stroke-width="1.5" stroke-linecap="round" stroke-linejoin="round"/>
<path d="M12.1816 17C10.5116 17 9.68164 17.83 9.68164 19.5V22H14.6816V19.5C14.6816 17.83 13.8516 17 12.1816 17Z" stroke="white" stroke-width="1.5" stroke-linecap="round" stroke-linejoin="round"/>
</svg>
