<svg width="25" height="24" viewBox="0 0 25 24" fill="none" xmlns="http://www.w3.org/2000/svg">
<path d="M13.0392 12.8505C12.9628 12.8396 12.8646 12.8396 12.7774 12.8505C10.8574 12.7851 9.33008 11.2142 9.33008 9.28326C9.33008 7.30872 10.9228 5.70508 12.9083 5.70508C14.8828 5.70508 16.4864 7.30872 16.4864 9.28326C16.4755 11.2142 14.9592 12.7851 13.0392 12.8505Z" stroke="white" stroke-width="1.8" stroke-linecap="round" stroke-linejoin="round"/>
<path d="M20.2601 20.0507C18.3183 21.8289 15.7438 22.9089 12.9074 22.9089C10.0711 22.9089 7.49651 21.8289 5.55469 20.0507C5.66378 19.0253 6.31832 18.0216 7.4856 17.2362C10.4747 15.2507 15.362 15.2507 18.3292 17.2362C19.4965 18.0216 20.1511 19.0253 20.2601 20.0507Z" stroke="white" stroke-width="1.8" stroke-linecap="round" stroke-linejoin="round"/>
<path d="M12.9091 22.909C18.934 22.909 23.8182 18.0248 23.8182 11.9999C23.8182 5.97499 18.934 1.09082 12.9091 1.09082C6.88417 1.09082 2 5.97499 2 11.9999C2 18.0248 6.88417 22.909 12.9091 22.909Z" stroke="white" stroke-width="1.8" stroke-linecap="round" stroke-linejoin="round"/>
</svg>
