<svg width="25" height="24" viewBox="0 0 25 24" fill="none" xmlns="http://www.w3.org/2000/svg">
<path d="M12.4642 12.851C12.3879 12.8401 12.2897 12.8401 12.2024 12.851C10.2824 12.7856 8.75513 11.2147 8.75513 9.28375C8.75513 7.3092 10.3479 5.70557 12.3333 5.70557C14.3079 5.70557 15.9115 7.3092 15.9115 9.28375C15.9006 11.2147 14.3842 12.7856 12.4642 12.851Z" stroke="#0066CC" stroke-width="1.8" stroke-linecap="round" stroke-linejoin="round"/>
<path d="M19.686 20.0507C17.7442 21.8289 15.1697 22.9089 12.3333 22.9089C9.49695 22.9089 6.92241 21.8289 4.98059 20.0507C5.08968 19.0253 5.74423 18.0216 6.9115 17.2362C9.90059 15.2507 14.7879 15.2507 17.7551 17.2362C18.9224 18.0216 19.577 19.0253 19.686 20.0507Z" stroke="#0066CC" stroke-width="1.8" stroke-linecap="round" stroke-linejoin="round"/>
<path d="M12.3333 22.909C18.3582 22.909 23.2424 18.0248 23.2424 11.9999C23.2424 5.97499 18.3582 1.09082 12.3333 1.09082C6.30839 1.09082 1.42422 5.97499 1.42422 11.9999C1.42422 18.0248 6.30839 22.909 12.3333 22.909Z" stroke="#0066CC" stroke-width="1.8" stroke-linecap="round" stroke-linejoin="round"/>
</svg>
