<svg width="25" height="24" viewBox="0 0 25 24" fill="none" xmlns="http://www.w3.org/2000/svg">
<path d="M12.4642 12.8509C12.3879 12.84 12.2897 12.84 12.2024 12.8509C10.2824 12.7854 8.75513 11.2145 8.75513 9.28363C8.75513 7.30908 10.3479 5.70544 12.3333 5.70544C14.3079 5.70544 15.9115 7.30908 15.9115 9.28363C15.9006 11.2145 14.3842 12.7854 12.4642 12.8509Z" stroke="#86868B" stroke-width="1.8" stroke-linecap="round" stroke-linejoin="round"/>
<path d="M19.686 20.051C17.7442 21.8291 15.1697 22.9091 12.3333 22.9091C9.49695 22.9091 6.92241 21.8291 4.98059 20.051C5.08968 19.0255 5.74423 18.0219 6.9115 17.2364C9.90059 15.251 14.7879 15.251 17.7551 17.2364C18.9224 18.0219 19.577 19.0255 19.686 20.051Z" stroke="#86868B" stroke-width="1.8" stroke-linecap="round" stroke-linejoin="round"/>
<path d="M12.3333 22.9091C18.3582 22.9091 23.2424 18.025 23.2424 12C23.2424 5.97511 18.3582 1.09094 12.3333 1.09094C6.30839 1.09094 1.42422 5.97511 1.42422 12C1.42422 18.025 6.30839 22.9091 12.3333 22.9091Z" stroke="#86868B" stroke-width="1.8" stroke-linecap="round" stroke-linejoin="round"/>
</svg>
