<svg width="24" height="24" viewBox="0 0 24 24" fill="none" xmlns="http://www.w3.org/2000/svg">
<path d="M12.1309 12.851C12.0545 12.8401 11.9564 12.8401 11.8691 12.851C9.94909 12.7856 8.42181 11.2147 8.42181 9.28375C8.42181 7.3092 10.0145 5.70557 12 5.70557C13.9745 5.70557 15.5782 7.3092 15.5782 9.28375C15.5673 11.2147 14.0509 12.7856 12.1309 12.851Z" stroke="#1D1D1F" stroke-width="1.8" stroke-linecap="round" stroke-linejoin="round"/>
<path d="M19.3527 20.0507C17.4109 21.8289 14.8364 22.9089 12 22.9089C9.16364 22.9089 6.5891 21.8289 4.64728 20.0507C4.75637 19.0253 5.41091 18.0216 6.57819 17.2362C9.56728 15.2507 14.4545 15.2507 17.4218 17.2362C18.5891 18.0216 19.2436 19.0253 19.3527 20.0507Z" stroke="#1D1D1F" stroke-width="1.8" stroke-linecap="round" stroke-linejoin="round"/>
<path d="M12 22.909C18.0249 22.909 22.9091 18.0248 22.9091 11.9999C22.9091 5.97499 18.0249 1.09082 12 1.09082C5.97505 1.09082 1.09088 5.97499 1.09088 11.9999C1.09088 18.0248 5.97505 22.909 12 22.909Z" stroke="#1D1D1F" stroke-width="1.8" stroke-linecap="round" stroke-linejoin="round"/>
</svg>
